<svg xmlns="http://www.w3.org/2000/svg" version="1.1" xmlns:xlink="http://www.w3.org/1999/xlink" xmlns:svgjs="http://svgjs.dev/svgjs" width="1500" height="935" viewBox="0 0 1500 935"><g transform="matrix(1,0,0,1,-0.9090909090909918,0.3785425101214628)"><svg viewBox="0 0 396 247" data-background-color="#853439" preserveAspectRatio="xMidYMid meet" height="935" width="1500" xmlns="http://www.w3.org/2000/svg" xmlns:xlink="http://www.w3.org/1999/xlink"><g id="tight-bounds" transform="matrix(1,0,0,1,0.2400000000000091,-0.09999999999999432)"><svg viewBox="0 0 395.52 247.2" height="247.2" width="395.52"><g><svg></svg></g><g><svg viewBox="0 0 395.52 247.2" height="247.2" width="395.52"><g transform="matrix(1,0,0,1,75.54432000000001,82.24194742414039)"><svg viewBox="0 0 244.43135999999996 82.7161051517192" height="82.7161051517192" width="244.43135999999996"><g><svg viewBox="0 0 244.43135999999996 82.7161051517192" height="82.7161051517192" width="244.43135999999996"><g><svg viewBox="0 0 244.43136 82.71610515171922" height="82.7161051517192" width="244.43135999999996"><g><svg viewBox="0 0 244.43136 82.71610515171922" height="82.71610515171922" width="244.43136"><g id="textblocktransform"><svg viewBox="0 0 244.43136 82.71610515171922" height="82.71610515171922" width="244.43136" id="textblock"><g><svg viewBox="0 0 244.43136 82.71610515171922" height="82.71610515171922" width="244.43136"><g transform="matrix(1,0,0,1,0,0)"><svg width="244.43136" viewBox="-3.559982652775 -36.525 113.484982652775 38.402777888885" height="82.71610515171922" data-palette-color="#fe5e30"><path d="M-0.05 0.1L-0.8-0.5Q-0.8-0.5-0.85-0.55L-0.85-0.55-1.6-0.2Q-1.6-0.2-1.6-0.2L-1.6-0.2Q-1.6-0.2-1.6-0.2L-1.6-0.2-2.35 0.05-3.15 0.4Q-3.35 0.5-3.45 0.3L-3.45 0.3Q-3.5 0.2-3.45 0.1L-3.45 0.1Q-3.5 0.05-3.55 0L-3.55 0Q-3.6-0.25-3.4-0.3L-3.4-0.3-2.4-0.65-1.7-1.05Q-1.7-1.05-1.65-1.05L-1.65-1.05Q-1.65-1.05-1.65-1.05L-1.65-1.05-1.15-1.25Q-1.15-1.4-1.1-1.55L-1.1-1.55Q-1.1-1.55-1.1-1.55L-1.1-1.55Q-1.15-1.55-1.15-1.55L-1.15-1.55-2-1.3-2.75-1.05Q-2.95-1-3-1.2L-3-1.2Q-3.1-1.45-2.85-1.5L-2.85-1.5-2.15-1.75Q-2.15-1.75-2.15-1.75L-2.15-1.75Q-2.1-1.75-2.1-1.75L-2.1-1.75-1.25-1.95-1-2.05Q-0.95-2.25-0.85-2.45L-0.85-2.45-1.6-2.1Q-1.6-2.1-1.6-2.1L-1.6-2.1Q-1.6-2.1-1.6-2.1L-1.6-2.1-2.5-1.75Q-2.7-1.7-2.8-1.9L-2.8-1.9Q-2.85-2.1-2.65-2.2L-2.65-2.2-1.8-2.5-0.95-2.9Q-0.95-2.9-0.95-2.9L-0.95-2.9Q-0.95-2.9-0.95-2.9L-0.95-2.9-0.65-3Q-0.55-3.4-0.65-3.5L-0.65-3.5Q-0.65-3.5-0.65-3.5L-0.65-3.5Q-0.7-3.5-0.7-3.5-0.7-3.5-0.7-3.5L-0.7-3.5-1.55-3.25-2.3-3Q-2.55-2.9-2.6-3.15L-2.6-3.15Q-2.7-3.35-2.45-3.4L-2.45-3.4-1.7-3.7Q-1.7-3.7-1.7-3.7L-1.7-3.7Q-1.65-3.7-1.65-3.7L-1.65-3.7-0.8-3.95-0.3-4.1Q-0.25-4.25-0.15-4.45L-0.15-4.45-0.95-4.1-1.65-3.75Q-1.85-3.65-1.95-3.85L-1.95-3.85Q-2.1-4.05-1.9-4.15L-1.9-4.15-1.15-4.5Q-1.15-4.5-1.15-4.55L-1.15-4.55Q-1.15-4.55-1.15-4.55L-1.15-4.55-0.3-4.85 0.05-5Q0.1-5.2 0.1-5.3L0.1-5.3Q0.1-5.3 0.1-5.3L0.1-5.3Q0.1-5.3 0.1-5.3L0.1-5.3-0.65-5.05-1.4-4.75Q-1.6-4.7-1.7-4.9L-1.7-4.9Q-1.8-5.1-1.55-5.2L-1.55-5.2-0.8-5.5Q-0.8-5.5-0.8-5.5L-0.8-5.5Q-0.8-5.5-0.8-5.5L-0.8-5.5-0.05-5.7 0.4-5.95Q0.55-6.35 0.5-6.45L0.5-6.45-0.35-6.15-1.2-5.75Q-1.45-5.65-1.5-5.9L-1.5-5.9Q-1.6-6.1-1.4-6.2L-1.4-6.2-0.55-6.55Q-0.55-6.55-0.5-6.55L-0.5-6.55Q-0.5-6.55-0.5-6.55L-0.5-6.55 0.35-6.9Q0.35-6.9 0.35-6.9L0.35-6.9Q0.4-6.9 0.4-6.9L0.4-6.9 0.9-7.05Q0.9-7.15 1-7.35L1-7.35 0.75-7.25 0-7.05-0.85-6.7Q-1.05-6.6-1.15-6.85L-1.15-6.85Q-1.2-7.05-1-7.1L-1-7.1-0.15-7.45Q-0.15-7.45-0.15-7.45L-0.15-7.45Q-0.1-7.45-0.1-7.45L-0.1-7.45 0.6-7.7 1.25-7.9Q1.35-8.15 1.45-8.4L1.45-8.4 1.2-8.3 0.4-7.9Q0.4-7.9 0.4-7.9L0.4-7.9Q0.4-7.9 0.4-7.9L0.4-7.9-0.45-7.7Q-0.65-7.6-0.7-7.85L-0.7-7.85Q-0.8-8.05-0.55-8.1L-0.55-8.1 0.25-8.35 1-8.7Q1-8.7 1-8.7L1-8.7Q1.05-8.75 1.05-8.75L1.05-8.75 1.65-8.9Q1.65-8.95 1.75-9.15L1.75-9.15Q1.75-9.2 1.8-9.2L1.8-9.2 1.5-9.15 0.75-8.75-0.15-8.4Q-0.35-8.3-0.45-8.5L-0.45-8.5Q-0.55-8.7-0.3-8.8L-0.3-8.8 0.55-9.15 1.3-9.55Q1.3-9.55 1.35-9.55L1.35-9.55Q1.35-9.55 1.35-9.55L1.35-9.55 2-9.75Q2.1-10 1.95-10.05L1.95-10.05Q1.95-10.05 1.95-10.05L1.95-10.05Q1.95-10.05 1.95-10.05L1.95-10.05 1.15-9.75 0.35-9.35Q0.15-9.25 0.05-9.5L0.05-9.5Q-0.05-9.7 0.15-9.8L0.15-9.8 1-10.15Q1-10.15 1-10.15L1-10.15Q1-10.15 1-10.15L1-10.15 1.75-10.45 2.4-10.75Q2.45-10.9 2.55-11.05L2.55-11.05 2.1-10.85Q2.1-10.85 2.1-10.85L2.1-10.85Q2.1-10.85 2.1-10.85L2.1-10.85 1.35-10.65 0.55-10.35Q0.35-10.25 0.25-10.5L0.25-10.5Q0.2-10.7 0.4-10.75L0.4-10.75 1.2-11.05Q1.2-11.05 1.2-11.05L1.2-11.05Q1.2-11.05 1.2-11.05L1.2-11.05 1.95-11.3 2.75-11.65Q2.9-11.95 2.95-12.1L2.95-12.1 2.25-11.9 1.4-11.65 0.65-11.45Q0.4-11.35 0.35-11.6L0.35-11.6Q0.3-11.8 0.5-11.85L0.5-11.85 1.3-12.1 2.15-12.35 3.15-12.7Q3.3-12.95 3.4-13.2L3.4-13.2 2.65-13 1.95-12.65Q1.95-12.65 1.95-12.65L1.95-12.65Q1.95-12.65 1.95-12.65L1.95-12.65 1.1-12.4Q0.9-12.3 0.85-12.5L0.85-12.5Q0.75-12.75 0.95-12.8L0.95-12.8 1.8-13.1 2.5-13.4Q2.5-13.4 2.5-13.4L2.5-13.4Q2.55-13.4 2.55-13.4L2.55-13.4 3.35-13.65 3.6-13.75Q3.65-13.8 3.65-13.9L3.65-13.9Q3.7-13.9 3.75-14L3.75-14 3.15-13.85 2.35-13.6 1.6-13.2Q1.4-13.1 1.3-13.3L1.3-13.3Q1.2-13.55 1.4-13.65L1.4-13.65 2.2-14Q2.2-14 2.2-14L2.2-14Q2.25-14.05 2.25-14.05L2.25-14.05 3-14.25 3.75-14.5 4.2-14.7Q4.3-14.9 4.4-15.2L4.4-15.2 4.15-15.1 3.4-14.75 2.6-14.4Q2.6-14.4 2.6-14.4L2.6-14.4Q2.6-14.4 2.6-14.4L2.6-14.4 1.7-14.15Q1.5-14.1 1.45-14.3L1.45-14.3Q1.35-14.55 1.6-14.6L1.6-14.6 2.45-14.8 3.2-15.2Q3.2-15.2 3.2-15.2L3.2-15.2Q3.2-15.2 3.2-15.2L3.2-15.2 4-15.5Q4-15.5 4-15.5L4-15.5Q4-15.55 4-15.55L4-15.55 4.55-15.7Q4.65-15.9 4.6-15.95L4.6-15.95 3.75-15.55 3-15.2Q3-15.2 3-15.2L3-15.2Q2.95-15.15 2.95-15.15L2.95-15.15 2.1-14.9Q1.9-14.8 1.8-15.05L1.8-15.05Q1.75-15.25 1.95-15.3L1.95-15.3 2.8-15.6 3.55-15.95 4.4-16.35 4.8-16.55Q4.8-16.6 4.85-16.6L4.85-16.6Q4.9-16.85 4.9-17L4.9-17 4-16.8 3.2-16.45 2.5-16.1Q2.3-16 2.2-16.2L2.2-16.2Q2.1-16.4 2.3-16.5L2.3-16.5 3-16.85Q3-16.85 3-16.9L3-16.9Q3.05-16.9 3.05-16.9L3.05-16.9 3.85-17.2Q3.85-17.2 3.9-17.2L3.9-17.2Q3.9-17.25 3.9-17.25L3.9-17.25 4.75-17.45 5.1-17.55Q5.15-17.75 5.15-17.9L5.15-17.9Q5.15-17.9 5.15-17.9L5.15-17.9 4.3-17.7 3.6-17.4 2.75-17Q2.55-16.95 2.45-17.15L2.45-17.15Q2.35-17.35 2.6-17.45L2.6-17.45 3.4-17.8Q3.4-17.8 3.4-17.8L3.4-17.8Q3.4-17.8 3.4-17.8L3.4-17.8 4.15-18.1Q4.15-18.1 4.15-18.1L4.15-18.1Q4.2-18.1 4.2-18.1L4.2-18.1 5.3-18.45Q5.35-18.6 5.4-18.85L5.4-18.85 4.65-18.55 3.75-18.3 3-17.9Q2.8-17.8 2.7-18L2.7-18Q2.6-18.2 2.8-18.3L2.8-18.3 3.55-18.7Q3.55-18.7 3.6-18.7L3.6-18.7Q3.6-18.7 3.6-18.7L3.6-18.7 4.5-19 5.5-19.35Q5.55-19.5 5.55-19.65L5.55-19.65 4.9-19.45 4.2-19.2 3.3-18.9Q3.1-18.8 3-19.05L3-19.05Q2.95-19.25 3.15-19.3L3.15-19.3 4.05-19.6 4.75-19.9Q4.75-19.9 4.75-19.9L4.75-19.9Q4.75-19.9 4.75-19.9L4.75-19.9 5.7-20.2Q5.75-20.4 5.55-20.4L5.55-20.4 4.7-20Q4.7-20 4.7-20L4.7-20Q4.7-20 4.7-20L4.7-20 3.8-19.8Q3.6-19.7 3.55-19.95L3.55-19.95Q3.5-20.15 3.7-20.2L3.7-20.2 4.55-20.45 5.35-20.8 5.9-21.1Q5.95-21.3 5.95-21.5L5.95-21.5 5.65-21.35 4.8-20.95 3.9-20.6Q3.7-20.5 3.65-20.7L3.65-20.7Q3.55-20.9 3.75-21L3.75-21 4.6-21.35 5.45-21.75 6.1-22.05Q6.15-22.3 6.1-22.35L6.1-22.35 5.35-22.15 4.5-21.8Q4.3-21.75 4.2-21.95L4.2-21.95Q4.1-22.15 4.35-22.25L4.35-22.25 5.25-22.55 5.95-22.8 6.3-22.9Q6.3-23 6.35-23.1L6.35-23.1 5.65-22.8 4.8-22.4Q4.55-22.3 4.5-22.5L4.5-22.5Q4.4-22.7 4.6-22.8L4.6-22.8 5.45-23.2 6.5-23.65Q6.5-23.8 6.55-23.95L6.55-23.95 5.9-23.6 5.1-23.3Q4.9-23.2 4.8-23.4L4.8-23.4Q4.7-23.6 4.95-23.7L4.95-23.7 5.7-24.05 6.45-24.4 6.7-24.55Q6.8-24.8 6.85-25.05L6.85-25.05 6.25-24.8 5.35-24.5Q5.15-24.45 5.1-24.65L5.1-24.65Q5-24.9 5.25-24.95L5.25-24.95 6.1-25.25 7-25.6Q7.1-25.8 7.15-25.95L7.15-25.95 6.45-25.8 5.6-25.45Q5.4-25.4 5.3-25.6L5.3-25.6Q5.25-25.8 5.45-25.9L5.45-25.9 6.3-26.2Q6.3-26.2 6.35-26.2L6.35-26.2Q6.35-26.25 6.35-26.25L6.35-26.25 7.3-26.5Q7.35-26.65 7.4-26.8L7.4-26.8 6.85-26.55 6.05-26.2Q5.85-26.1 5.75-26.35L5.75-26.35Q5.65-26.55 5.85-26.6L5.85-26.6 6.7-26.95 7.4-27.3Q7.45-27.3 7.65-27.35L7.65-27.35Q7.75-27.65 7.85-27.9L7.85-27.9 7.2-27.7 6.35-27.35Q6.15-27.25 6.05-27.45L6.05-27.45Q6-27.65 6.2-27.75L6.2-27.75 7-28.15Q7-28.15 7.05-28.15L7.05-28.15Q7.05-28.15 7.05-28.15L7.05-28.15 7.85-28.4 8.2-28.5Q8.25-28.65 8.35-28.75L8.35-28.75 7.65-28.45 6.85-28.2Q6.6-28.1 6.55-28.3L6.55-28.3Q6.5-28.55 6.7-28.6L6.7-28.6 7.5-28.9 8.25-29.2 8.7-29.4Q8.8-29.7 8.75-29.8L8.75-29.8Q8.75-29.8 8.75-29.8L8.75-29.8Q8.7-29.8 8.7-29.8L8.7-29.8 8-29.5 7.1-29.15Q6.9-29.1 6.85-29.3L6.85-29.3Q6.75-29.5 6.95-29.6L6.95-29.6 7.85-29.9 8.55-30.2 9.05-30.45Q9.15-30.7 9.15-30.8L9.15-30.8 8.3-30.5 7.6-30.25Q7.35-30.2 7.3-30.4L7.3-30.4Q7.25-30.6 7.45-30.7L7.45-30.7 8.15-30.9 9-31.25Q9-31.25 9-31.25L9-31.25 9.4-31.35Q9.5-31.6 9.35-31.65L9.35-31.65 8.5-31.3 7.7-30.95Q7.45-30.85 7.4-31.05L7.4-31.05Q7.3-31.3 7.5-31.35L7.5-31.35 8.35-31.7 9.15-32.05 9.75-32.35Q9.8-32.5 9.85-32.65L9.85-32.65 9.6-32.55Q9.6-32.55 9.6-32.55L9.6-32.55 8.75-32.3 8-32.1Q7.8-32 7.7-32.25L7.7-32.25Q7.65-32.45 7.85-32.5L7.85-32.5 8.65-32.75 9.45-32.95 10.1-33.2Q10.2-33.45 10.25-33.65L10.25-33.65 9.65-33.45 8.85-33.2Q8.6-33.15 8.55-33.35L8.55-33.35Q8.5-33.55 8.7-33.65L8.7-33.65 9.55-33.85 10.55-34.25Q10.7-34.6 10.95-34.9 11.2-35.2 11.5-35.4L11.5-35.4Q12.15-35.9 12.9-35.95 13.65-36 14.45-35.95L14.45-35.95Q15.65-35.85 16.82-35.75 18-35.65 19.2-35.65L19.2-35.65Q19.85-35.65 20.5-35.65 21.15-35.65 21.75-35.7L21.75-35.7Q22.2-35.7 22.6-35.7 23-35.7 23.4-35.7L23.4-35.7Q23.45-35.7 23.55-35.75L23.55-35.75Q24.3-35.75 25.03-35.68 25.75-35.6 26.4-35.15L26.4-35.15Q27.05-34.7 27.33-34.02 27.6-33.35 27.85-32.65L27.85-32.65Q28.4-31.35 28.73-29.98 29.05-28.6 29.55-27.3L29.55-27.3Q30.3-26.25 30.73-24.7 31.15-23.15 31.48-21.48 31.8-19.8 32.25-18.32 32.7-16.85 33.45-16.05L33.45-16.05Q33.45-16.05 33.5-15.95L33.5-15.95Q33.55-15.9 33.55-15.9L33.55-15.9Q34.2-14.75 34.5-13.45 34.8-12.15 35.08-10.85 35.35-9.55 35.95-8.4L35.95-8.4Q35.95-8.4 36-8.35L36-8.35Q36-8.3 36.05-8.3L36.05-8.3Q36.4-7.15 36.77-6.03 37.15-4.9 37.6-3.8L37.6-3.8Q37.8-3.25 37.95-2.85L37.95-2.85Q38-2.7 38.08-2.53 38.15-2.35 38.25-2.2L38.25-2.2Q38.35-2.1 38.4-2L38.4-2Q38.45-1.85 38.48-1.75 38.5-1.65 38.55-1.5L38.55-1.5Q38.7-1 38.4-0.7L38.4-0.7Q38.1-0.3 37.83 0.05 37.55 0.4 37.15 0.65L37.15 0.65Q36.9 0.8 36.68 0.83 36.45 0.85 36.2 0.85L36.2 0.85Q35.95 0.8 35.85 0.85L35.85 0.85Q35.15 0.9 34.7 0.95L34.7 0.95 34.3 1.1 33.55 1.45Q33.35 1.55 33.25 1.35L33.25 1.35Q33.2 1.2 33.3 1.1L33.3 1.1 32.7 1.35Q32.5 1.45 32.4 1.25L32.4 1.25Q32.35 1.15 32.35 1.1L32.35 1.1Q32.2 1.1 32.02 1.13 31.85 1.15 31.6 1.15L31.6 1.15Q31.5 1.2 31.4 1.15L31.4 1.15Q31.3 1.15 31.2 1.15L31.2 1.15 30.65 1.35Q30.4 1.45 30.35 1.25L30.35 1.25Q30.3 1.2 30.3 1.15L30.3 1.15Q30.25 1.15 30.25 1.15L30.25 1.15 29.8 1.3Q29.6 1.4 29.5 1.2L29.5 1.2 29 1.4Q28.75 1.5 28.7 1.3L28.7 1.3Q28.65 1.2 28.7 1.15L28.7 1.15Q28.55 1.15 28.45 1.15L28.45 1.15Q28.45 1.15 28.45 1.15 28.45 1.15 28.45 1.15L28.45 1.15Q28.45 1.15 28.45 1.15L28.45 1.15Q28.35 1.15 28.2 1.15L28.2 1.15Q28.05 1.2 27.95 1.15L27.95 1.15Q27.65 1.1 27.45 1.1L27.45 1.1 27.1 1.25Q26.9 1.35 26.8 1.15L26.8 1.15Q26.8 1.15 26.75 1.1L26.75 1.1 26.1 1.3Q25.9 1.4 25.8 1.15L25.8 1.15Q25.8 1.15 25.8 1.15L25.8 1.15 25.2 1.3Q25 1.4 24.95 1.2L24.95 1.2Q24.9 1.1 24.95 1L24.95 1 24.25 1.3Q24.05 1.4 23.95 1.2L23.95 1.2Q23.85 1 24.05 0.9L24.05 0.9 24.8 0.55 25.45 0.3Q25.4 0.25 25.35 0.2L25.35 0.2 24.75 0.45 23.95 0.8 23.2 1.1Q23 1.2 22.9 1L22.9 1Q22.8 0.8 23 0.7L23 0.7 23.8 0.4 24.55 0.05 25.1-0.2Q25-0.35 24.85-0.65L24.85-0.65Q24.8-0.7 24.75-0.75L24.75-0.75 23.85-0.35 23.1-0.05Q23.1-0.05 23.05-0.05L23.05-0.05Q23.05-0.05 23.05-0.05L23.05-0.05 22.2 0.15Q21.95 0.25 21.9 0L21.9 0Q21.85-0.2 22.05-0.25L22.05-0.25 22.95-0.5 23.7-0.75 24.6-1.15Q24.6-1.3 24.55-1.4 24.5-1.5 24.45-1.65L24.45-1.65Q24.45-1.65 24.35-1.65L24.35-1.65 23.55-1.35 22.8-1 22.05-0.6Q21.85-0.5 21.75-0.7L21.75-0.7Q21.65-0.9 21.85-1L21.85-1 22.6-1.4 23.35-1.8Q23.35-1.8 23.4-1.8L23.4-1.8Q23.4-1.8 23.4-1.8L23.4-1.8 24.3-2.1Q24.2-2.4 24.1-2.55L24.1-2.55 23.2-2.15Q23.2-2.15 23.2-2.15L23.2-2.15Q23.2-2.15 23.2-2.15L23.2-2.15 22.5-1.9 21.65-1.55Q21.45-1.45 21.35-1.65L21.35-1.65Q21.25-1.85 21.45-1.95L21.45-1.95 22.3-2.35Q22.3-2.35 22.3-2.35L22.3-2.35Q22.35-2.35 22.35-2.35L22.35-2.35 23.05-2.55 23.9-2.95Q23.9-2.95 23.9-2.95L23.9-2.95Q23.95-2.95 24.05-3L24.05-3Q23.95-3.2 23.9-3.35L23.9-3.35Q23.9-3.35 23.8-3.35L23.8-3.35 23-3 22.15-2.75 21.35-2.5Q21.1-2.45 21.05-2.65L21.05-2.65Q21-2.85 21.2-2.95L21.2-2.95 22.05-3.15 22.85-3.45 23.6-3.75Q23.5-3.7 23.35-3.7L23.35-3.7Q23.2-3.7 23.08-3.7 22.95-3.7 22.75-3.7L22.75-3.7Q22.75-3.7 22.75-3.7L22.75-3.7Q22.75-3.7 22.75-3.7L22.75-3.7 21.95-3.45 21.15-3.25Q20.9-3.15 20.85-3.4L20.85-3.4Q20.8-3.6 21-3.65L21-3.65 21.35-3.75Q21.35-3.75 21.33-3.75 21.3-3.75 21.3-3.75L21.3-3.75 20.95-3.65 20.15-3.3Q19.95-3.2 19.85-3.4L19.85-3.4Q19.8-3.45 19.8-3.5L19.8-3.5 19.15-3.3Q19.1-3.25 18.8-3.3L18.8-3.3 17.9-3.05Q17.7-2.95 17.65-3.15L17.65-3.15Q17.6-3.3 17.7-3.4L17.7-3.4 17.05-3.25Q16.8-3.15 16.75-3.4L16.75-3.4Q16.75-3.4 16.75-3.45L16.75-3.45 16.05-3.25Q15.85-3.15 15.8-3.35L15.8-3.35 15.45-3.2Q15.25-3.1 15.15-3.3L15.15-3.3Q15.1-3.35 15.15-3.45L15.15-3.45 14.3-3.25Q14.1-3.15 14-3.4L14-3.4Q14-3.4 14-3.4L14-3.4Q13.9-3.1 13.83-2.8 13.75-2.5 13.65-2.2L13.65-2.2Q13.4-1.55 13.13-0.98 12.85-0.4 12.25 0L12.25 0Q11.9 0.25 11.5 0.33 11.1 0.4 10.7 0.45L10.7 0.45Q10.4 0.5 10.13 0.5 9.85 0.5 9.55 0.55L9.55 0.55 8.85 0.8Q8.85 0.8 8.85 0.8L8.85 0.8Q8.85 0.8 8.85 0.8L8.85 0.8 8 1.1 7.1 1.45Q6.9 1.55 6.8 1.35L6.8 1.35Q6.7 1.15 6.95 1.05L6.95 1.05 7.3 0.9 7 1 6.25 1.2Q6.2 1.25 6.15 1.25L6.15 1.25 5.45 1.5Q5.25 1.6 5.15 1.4L5.15 1.4Q5.05 1.2 5.3 1.1L5.3 1.1 6.25 0.65Q6.2 0.65 6.1 0.7L6.1 0.7 5.35 1.05Q5.35 1.05 5.35 1.05L5.35 1.05Q5.35 1.05 5.35 1.05L5.35 1.05 4.5 1.25Q4.3 1.35 4.25 1.1L4.25 1.1Q4.2 1.05 4.25 0.95L4.25 0.95Q4.25 0.95 4.25 0.95L4.25 0.95Q4.2 0.95 4.2 0.95L4.2 0.95 3.45 1.15Q3.25 1.25 3.15 1.05L3.15 1.05Q3.15 1.05 3.15 1.05L3.15 1.05Q3.15 1.05 3.15 1.05L3.15 1.05 2.35 1.25Q2.15 1.35 2.1 1.1L2.1 1.1Q2.05 1.1 2.1 1.05L2.1 1.05 1.75 1.15Q1.75 1.15 1.75 1.15L1.75 1.15Q1.75 1.15 1.75 1.15L1.75 1.15 0.85 1.35Q0.65 1.45 0.6 1.2L0.6 1.2Q0.55 1 0.75 0.95L0.75 0.95 1.55 0.75Q1.55 0.7 1.8 0.65L1.8 0.65Q1.6 0.65 1.4 0.65L1.4 0.65 0.6 1-0.2 1.35Q-0.4 1.45-0.5 1.25L-0.5 1.25Q-0.55 1.15-0.5 1.05L-0.5 1.05-1.2 1.25Q-1.4 1.35-1.45 1.15L-1.45 1.15Q-1.45 1.1-1.45 1.1L-1.45 1.1-1.95 1.25Q-2.15 1.35-2.25 1.1L-2.25 1.1Q-2.25 1.05-2.25 1L-2.25 1Q-2.3 0.8-2.1 0.75L-2.1 0.75-1.3 0.5-0.45 0.25-0.05 0.1ZM26.95-0.15L27.3-0.3Q27.5-0.35 27.6-0.15L27.6-0.15Q27.6-0.1 27.6-0.1L27.6-0.1Q27.7-0.05 27.8-0.05L27.8-0.05 28.2-0.25Q28.4-0.35 28.5-0.15L28.5-0.15Q28.5-0.15 28.5-0.1L28.5-0.1 29.15-0.3Q29.4-0.35 29.45-0.15L29.45-0.15Q29.45-0.15 29.45-0.1L29.45-0.1 30.1-0.3Q30.3-0.35 30.35-0.15L30.35-0.15Q30.4-0.1 30.4-0.1L30.4-0.1 31-0.3Q31.25-0.35 31.3-0.15L31.3-0.15Q31.3-0.1 31.3-0.05L31.3-0.05Q31.35-0.05 31.4-0.05L31.4-0.05 31.9-0.25Q32.1-0.35 32.2-0.15L32.2-0.15Q32.2-0.15 32.2-0.1L32.2-0.1Q32.25-0.1 32.3-0.1L32.3-0.1 32.85-0.3Q33.05-0.35 33.15-0.15L33.15-0.15Q33.3-0.15 33.4-0.15L33.4-0.15 33.8-0.3Q33.95-0.35 34-0.25L34-0.25Q34.2-0.25 34.35-0.25 34.5-0.25 34.7-0.3L34.7-0.3Q34.8-0.3 34.85-0.3L34.85-0.3Q35.25-0.3 35.75-0.35L35.75-0.35Q35.8-0.35 36-0.35L36-0.35Q36.4-0.3 36.5-0.4L36.5-0.4Q36.8-0.55 37-0.8 37.2-1.05 37.35-1.3L37.35-1.3Q37.35-1.35 37.35-1.35L37.35-1.35Q37.25-1.4 37.25-1.45L37.25-1.45Q37.15-1.7 37.05-1.93 36.95-2.15 36.85-2.4L36.85-2.4Q36.7-2.8 36.45-3.35L36.45-3.35Q36.05-4.45 35.65-5.6 35.25-6.75 34.9-7.9L34.9-7.9Q34.3-9 34.02-10.3 33.75-11.6 33.45-12.88 33.15-14.15 32.55-15.25L32.55-15.25Q31.65-16.25 31.2-17.75 30.75-19.25 30.45-20.93 30.15-22.6 29.73-24.1 29.3-25.6 28.5-26.65L28.5-26.65Q28.5-26.65 28.5-26.7L28.5-26.7Q28.45-26.75 28.45-26.75L28.45-26.75Q27.95-28.1 27.63-29.5 27.3-30.9 26.75-32.2L26.75-32.2Q26.75-32.2 26.75-32.2L26.75-32.2Q26.75-32.2 26.75-32.2L26.75-32.2Q26.55-32.7 26.35-33.27 26.15-33.85 25.7-34.15L25.7-34.15Q25.3-34.45 24.78-34.5 24.25-34.55 23.75-34.55L23.75-34.55Q23.55-34.5 23.45-34.5L23.45-34.5Q23-34.5 22.6-34.5 22.2-34.5 21.75-34.5L21.75-34.5Q21.15-34.45 20.5-34.45 19.85-34.45 19.2-34.45L19.2-34.45Q18-34.45 16.78-34.55 15.55-34.65 14.35-34.75L14.35-34.75Q14.35-34.75 14.35-34.75L14.35-34.75Q14.35-34.75 14.35-34.75L14.35-34.75Q14.3-34.75 14.1-34.75L14.1-34.75Q13.6-34.8 13.1-34.77 12.6-34.75 12.2-34.45L12.2-34.45Q11.75-34.1 11.5-33.5 11.25-32.9 11.05-32.4L11.05-32.4Q10.9-32 10.75-31.55L10.75-31.55Q10.75-31.45 10.65-31.4L10.65-31.4Q10.55-31.05 10.4-30.65L10.4-30.65Q10.4-30.65 10.4-30.65 10.4-30.65 10.4-30.65L10.4-30.65Q10.45-30.5 10.3-30.4L10.3-30.4Q10.2-30.1 10.05-29.75L10.05-29.75Q10.15-29.55 10-29.5L10-29.5Q9.85-29.15 9.75-28.8L9.75-28.8Q9.75-28.8 9.75-28.8L9.75-28.8Q9.8-28.65 9.65-28.55L9.65-28.55Q9.65-28.5 9.6-28.45L9.6-28.45Q9.6-28.4 9.55-28.4L9.55-28.4Q9.4-28.25 9.25-28L9.25-28Q9.35-28 9.4-27.9L9.4-27.9Q9.5-27.7 9.3-27.6L9.3-27.6 8.9-27.4Q8.8-27.2 8.8-27.05L8.8-27.05Q9-27.15 9.1-26.95L9.1-26.95Q9.15-26.75 8.95-26.65L8.95-26.65 8.5-26.45Q8.45-26.25 8.5-26.15L8.5-26.15Q8.7-26.2 8.75-25.95L8.75-25.95Q8.85-25.75 8.6-25.7L8.6-25.7 8.25-25.6Q8.2-25.4 8.15-25.2L8.15-25.2Q8.35-25.25 8.4-25.05L8.4-25.05Q8.5-24.85 8.3-24.75L8.3-24.75 8-24.65Q7.95-24.45 7.9-24.25L7.9-24.25Q8.05-24.25 8.1-24.1L8.1-24.1Q8.2-23.9 7.8-23.75L7.8-23.75Q7.75-23.55 7.7-23.3L7.7-23.3Q7.75-23.25 7.8-23.15L7.8-23.15Q7.85-22.95 7.6-22.85L7.6-22.85Q7.55-22.55 7.45-22.2L7.45-22.2Q7.45-22.2 7.45-22.2L7.45-22.2Q7.5-22.1 7.4-22L7.4-22Q7.05-20.3 6.7-18.55 6.35-16.8 5.88-15.43 5.4-14.05 4.75-13.35L4.75-13.35Q4.25-12.2 3.8-11 3.35-9.8 2.85-8.65L2.85-8.65Q2.7-8.3 2.55-7.93 2.4-7.55 2.2-7.15L2.2-7.15Q2.25-7.05 2.15-7L2.15-7Q2-6.6 1.85-6.3L1.85-6.3Q1.85-6.3 1.85-6.3L1.85-6.3Q1.95-6.1 1.75-6L1.75-6Q1.6-5.7 1.5-5.45L1.5-5.45Q1.55-5.4 1.55-5.35L1.55-5.35Q1.6-5.15 1.35-5.05L1.35-5.05Q1.25-4.75 1.15-4.5L1.15-4.5Q1.2-4.5 1.2-4.4L1.2-4.4Q1.3-4.2 1-4.1L1-4.1Q0.9-3.85 0.8-3.6L0.8-3.6Q0.85-3.55 0.85-3.5L0.85-3.5Q0.95-3.3 0.65-3.1L0.65-3.1Q0.55-2.9 0.5-2.65L0.5-2.65Q0.5-2.6 0.55-2.55L0.55-2.55Q0.65-2.35 0.3-2.2L0.3-2.2Q0.2-1.9 0.15-1.7L0.15-1.7Q0.2-1.7 0.25-1.6L0.25-1.6Q0.3-1.45 0.15-1.35L0.15-1.35Q0.2-1.3 0.2-1.25L0.2-1.25 1.05-0.55Q1.5-0.55 1.95-0.55 2.4-0.55 2.85-0.55L2.85-0.55Q4.3-0.5 5.7-0.5 7.1-0.5 8.5-0.65L8.5-0.65Q8.7-0.65 8.88-0.65 9.05-0.65 9.2-0.65L9.2-0.65Q9.55-0.65 9.88-0.68 10.2-0.7 10.5-0.75L10.5-0.75Q10.8-0.8 11.08-0.83 11.35-0.85 11.6-1L11.6-1Q12-1.25 12.18-1.7 12.35-2.15 12.5-2.6L12.5-2.6Q12.6-2.9 12.7-3.23 12.8-3.55 12.9-3.9L12.9-3.9Q12.9-4 12.95-4.05L12.95-4.05Q13-4.1 13-4.15L13-4.15Q13.1-4.45 13.1-4.7 13.1-4.95 13.45-5.15L13.45-5.15Q13.65-5.3 13.85-5.3 14.05-5.3 14.25-5.25L14.25-5.25Q14.45-5.2 14.6-5.2L14.6-5.2Q15.05-5.15 15.5-5.13 15.95-5.1 16.4-5.1L16.4-5.1Q17.9-5 19.38-5 20.85-5 22.35-4.95L22.35-4.95 22.35-4.95Q22.35-4.95 22.35-4.95L22.35-4.95Q22.6-4.95 22.85-4.93 23.1-4.9 23.4-4.9L23.4-4.9Q23.5-4.9 23.75-4.95L23.75-4.95Q23.95-4.95 24.18-4.95 24.4-4.95 24.6-4.8L24.6-4.8Q24.9-4.6 24.93-4.33 24.95-4.05 25.05-3.75L25.05-3.75Q25.2-3.3 25.33-2.88 25.45-2.45 25.6-2L25.6-2Q25.7-1.8 25.75-1.6 25.8-1.4 25.9-1.2L25.9-1.2Q25.95-1.05 26.05-0.88 26.15-0.7 26.3-0.55L26.3-0.55Q26.35-0.55 26.35-0.5L26.35-0.5Q26.45-0.4 26.5-0.35L26.5-0.35Q26.7-0.25 26.95-0.15L26.95-0.15ZM15.65-13.95L15.65-13.95Q15.2-14.5 15.6-14.7L15.6-14.7 16-14.95Q16.35-15.85 16.6-16.8 16.85-17.75 17.1-18.7L17.1-18.7Q17-18.7 16.9-18.8L16.9-18.8Q16.85-19 17.25-19.2L17.25-19.2Q17.35-19.55 17.45-19.85L17.45-19.85Q17.45-19.85 17.45-19.85L17.45-19.85Q17.35-20.05 17.6-20.2L17.6-20.2Q17.65-20.4 17.73-20.58 17.8-20.75 17.85-20.9L17.85-20.9Q17.65-20.85 17.55-21.05L17.55-21.05Q17.5-21.3 17.7-21.35L17.7-21.35 18.15-21.45Q18.25-21.85 18.35-22.2L18.35-22.2Q18.35-22.2 18.4-22.25L18.4-22.25Q18.25-22.1 18.1-22.25L18.1-22.25Q17.9-22.35 18.15-22.7L18.15-22.7Q18.15-22.75 18.25-22.8L18.25-22.8Q18.35-22.85 18.45-22.85L18.45-22.85Q18.5-23.35 18.95-23.45L18.95-23.45Q19.4-23.55 19.5-23.28 19.6-23 19.65-22.7L19.65-22.7Q19.65-22.4 19.7-22.3L19.7-22.3Q19.9-21.65 20.1-21.03 20.3-20.4 20.5-19.75L20.5-19.75Q20.8-18.65 21.13-17.53 21.45-16.4 21.8-15.3L21.8-15.3Q21.85-15.2 22-14.95L22-14.95Q22.1-14.75 22.18-14.53 22.25-14.3 22-14.05L22-14.05Q21.8-13.8 21.58-13.8 21.35-13.8 21.1-13.85L21.1-13.85Q20.85-13.95 20.75-13.95L20.75-13.95Q19.8-14 18.85-14.05 17.9-14.1 16.95-14.15L16.95-14.15Q16.85-13.9 16.75-13.7L16.75-13.7Q16.55-13.25 16-13.65L16-13.65Q15.85-13.65 15.75-13.75L15.75-13.75Q15.65-13.85 15.65-13.95ZM18.7-19.8L18.7-19.8 19.2-19.95Q19.1-20.25 18.95-20.35L18.95-20.35Q18.85-20.1 18.7-19.8ZM18.65-18.5L19.5-18.9Q19.4-19.2 19.35-19.4L19.35-19.4Q19.3-19.5 19.3-19.5L19.3-19.5 18.5-19.25Q18.4-18.85 18.25-18.35L18.25-18.35 18.65-18.5ZM18.85-17.7L19.75-18Q19.65-18.3 19.6-18.5L19.6-18.5 18.85-18.1Q18.85-18.1 18.85-18.1L18.85-18.1Q18.8-18.1 18.8-18.1L18.8-18.1 18.1-17.85Q18-17.5 18-17.3L18-17.3 18.85-17.7Q18.85-17.7 18.85-17.7L18.85-17.7ZM19.1-16.8L20-17.15Q19.9-17.45 19.8-17.55L19.8-17.55 19-17.25 18.15-16.9Q18.15-16.9 18.15-16.9L18.15-16.9Q18.15-16.9 18.15-16.9L18.15-16.9 17.8-16.8Q17.75-16.6 17.7-16.4L17.7-16.4 18.2-16.6Q18.2-16.6 18.25-16.6L18.25-16.6Q18.25-16.6 18.25-16.6L18.25-16.6 19.1-16.8ZM17.4-15.35L17.4-15.35Q17.75-15.3 18.2-15.3L18.2-15.3 18.75-15.55 19.5-15.85Q19.5-15.85 19.55-15.9L19.55-15.9Q19.55-15.9 19.55-15.9L19.55-15.9 20.3-16.1Q20.25-16.25 20.2-16.4 20.15-16.55 20-16.65L20-16.65 19.25-16.4Q19.25-16.4 19.25-16.4L19.25-16.4Q19.25-16.4 19.25-16.4L19.25-16.4 18.35-16.15 17.55-15.9Q17.5-15.6 17.4-15.35ZM19.7-15.45L19.2-15.25Q19.5-15.2 19.83-15.2 20.15-15.2 20.55-15.25L20.55-15.25Q20.5-15.45 20.45-15.7L20.45-15.7 19.7-15.45ZM18.2-3.6L18.85-3.8Q18.75-3.8 18.65-3.8L18.65-3.8 18.2-3.6ZM38.1-2.25L38.1-2.25Q37.95-2.35 37.85-2.4L37.85-2.4Q37.7-2.45 37.6-2.4L37.6-2.4Q37.5-2.4 37.5-2.4L37.5-2.4Q37.5-2.4 37.7-2.38 37.9-2.35 38.1-2.25ZM4.55 0.8L4.95 0.7Q4.9 0.7 4.85 0.7L4.85 0.7 4.55 0.8ZM41.25-29.55L41.95-29.9Q42.1-30 42.2-29.9L42.2-29.9Q42.25-30 42.35-30.15L42.35-30.15 41.9-29.95 41.05-29.65 40.2-29.35 39.4-29.1Q39.2-29.05 39.1-29.25L39.1-29.25Q39.05-29.5 39.25-29.55L39.25-29.55 39.95-29.75Q39.9-29.75 39.9-29.8L39.9-29.8Q39.8-30 40-30.1L40-30.1 40.75-30.5Q40.75-30.5 40.75-30.5L40.75-30.5Q40.75-30.5 40.75-30.5L40.75-30.5 41.6-30.8 42.45-31.1 41.65-30.85 40.8-30.5Q40.6-30.45 40.5-30.65L40.5-30.65Q40.4-30.85 40.65-30.95L40.65-30.95 41.45-31.25Q41.4-31.25 41.4-31.3L41.4-31.3Q41.3-31.5 41.5-31.6L41.5-31.6 42.3-31.9Q42.35-31.95 42.4-32L42.4-32 43.25-32.3Q43.2-32.35 43.15-32.4L43.15-32.4Q43.1-32.6 43.3-32.65L43.3-32.65 44.1-32.95 44.5-33.1Q44.55-33.15 44.55-33.15L44.55-33.15Q45.8-34.35 47.55-35.02 49.3-35.7 50.95-36.15L50.95-36.15Q50.95-36.15 50.95-36.2L50.95-36.2Q51-36.2 51-36.2L51-36.2Q52.25-36.45 53.55-36.5 54.85-36.55 56.15-36.5L56.15-36.5Q57.5-36.45 58.97-36.38 60.45-36.3 61.8-35.9L61.8-35.9Q63.05-35.5 64.3-34.98 65.55-34.45 66.75-33.8L66.75-33.8Q66.75-33.8 66.75-33.8 66.75-33.8 66.75-33.8L66.75-33.8Q66.75-33.8 66.75-33.8 66.75-33.8 66.75-33.8L66.75-33.8Q67.75-33.25 68.7-32.65 69.65-32.05 70.4-31.2L70.4-31.2Q71.4-30.25 72.1-29.03 72.8-27.8 73.25-26.5L73.25-26.5Q73.85-24.85 73.95-23.25L73.95-23.25Q73.95-23.15 74-22.9L74-22.9Q74.05-22.6 74.05-22.35 74.05-22.1 73.9-21.8L73.9-21.8Q73.3-20.65 72.62-20.48 71.95-20.3 70.85-20.3L70.85-20.3Q70.8-20.3 70.75-20.35L70.75-20.35Q70.3-20.35 69.7-20.35L69.7-20.35 68.9-20Q68.7-19.9 68.6-20.1L68.6-20.1Q68.55-20.25 68.7-20.35L68.7-20.35Q68.5-20.4 68.1-20.4L68.1-20.4 67.65-20.15Q67.45-20.05 67.35-20.25L67.35-20.25Q67.3-20.3 67.3-20.4L67.3-20.4Q67.2-20.4 67.1-20.4L67.1-20.4 66.65-20.2Q66.45-20.1 66.35-20.3L66.35-20.3Q66.3-20.35 66.3-20.4L66.3-20.4Q66.25-20.4 66.15-20.4L66.15-20.4 65.65-20.3Q65.4-20.2 65.35-20.45L65.35-20.45Q65.35-20.45 65.35-20.45L65.35-20.45Q65.25-20.45 65.15-20.45L65.15-20.45 64.6-20.3Q64.4-20.2 64.3-20.4L64.3-20.4 63.55-20.15Q63.35-20.05 63.25-20.25L63.25-20.25Q63.25-20.35 63.25-20.4L63.25-20.4 62.5-20.2Q62.3-20.1 62.2-20.35L62.2-20.35Q62.15-20.55 62.15-20.5L62.15-20.5 61.35-20.3Q61.25-20.25 61.15-20.35L61.15-20.35 60.5-20.05Q60.25-19.95 60.2-20.2L60.2-20.2Q60.1-20.4 60.3-20.45L60.3-20.45 61-20.75Q61-20.75 61-20.75L61-20.75Q60.9-20.8 60.75-20.8L60.75-20.8 60.1-20.55Q60.1-20.55 60.1-20.55L60.1-20.55Q60.1-20.55 60.1-20.55L60.1-20.55 59.35-20.3Q59.1-20.25 59.05-20.5L59.05-20.5Q59.05-20.5 59.05-20.55L59.05-20.55 58.4-20.35Q58.2-20.25 58.1-20.45L58.1-20.45Q58.05-20.7 58.25-20.75L58.25-20.75 59.05-21.05 59.6-21.25 59.6-21.25Q59.5-21.35 59.45-21.4L59.45-21.4 59.05-21.3 58.2-20.9 57.3-20.55Q57.1-20.45 57-20.65L57-20.65Q56.9-20.85 57.15-20.95L57.15-20.95 58-21.35 58.9-21.7Q58.9-21.7 58.9-21.7L58.9-21.7Q58.9-21.7 58.9-21.7L58.9-21.7 59.25-21.85Q59.2-21.95 59.15-22.1 59.1-22.25 59.05-22.4L59.05-22.4 58.65-22.2 57.95-21.8Q57.95-21.8 57.9-21.8L57.9-21.8Q57.9-21.8 57.9-21.8L57.9-21.8 57.1-21.5Q56.9-21.4 56.8-21.6L56.8-21.6Q56.7-21.8 56.9-21.9L56.9-21.9 57.75-22.25 58.45-22.6 58.9-22.85Q58.85-23 58.75-23.2 58.65-23.4 58.6-23.6L58.6-23.6 58.1-23.45 57.3-23.1 56.55-22.8Q56.35-22.75 56.25-22.95L56.25-22.95Q56.2-23.15 56.4-23.25L56.4-23.25 57.15-23.55 57.9-23.85Q57.9-23.85 57.95-23.85L57.95-23.85Q57.95-23.85 57.95-23.85L57.95-23.85 58.35-24Q58.2-24.3 58-24.55L58-24.55 57.25-24.35 56.45-24.05 55.65-23.75Q55.45-23.65 55.35-23.85L55.35-23.85Q55.3-24.05 55.5-24.15L55.5-24.15 56.25-24.5Q56.25-24.5 56.25-24.5L56.25-24.5Q56.3-24.5 56.3-24.5L56.3-24.5 57.1-24.75Q57.1-24.75 57.1-24.75L57.1-24.75Q57.1-24.75 57.1-24.75L57.1-24.75 57.55-24.9Q57.5-24.95 57.4-25L57.4-25Q57.25-25.05 56.85-24.95L56.85-24.95Q56.6-24.95 56.55-24.95L56.55-24.95Q56.4-24.95 56.35-24.95L56.35-24.95 55.7-24.65 54.9-24.35Q54.7-24.25 54.6-24.45L54.6-24.45Q54.5-24.65 54.75-24.75L54.75-24.75 55.05-24.9Q54.75-24.85 54.5-24.8L54.5-24.8 53.85-24.5Q53.65-24.4 53.55-24.55L53.55-24.55Q53.45-24.55 53.35-24.53 53.25-24.5 53.2-24.5L53.2-24.5Q53.2-24.05 53.2-23.63 53.2-23.2 53.2-22.8L53.2-22.8Q53.2-21.8 53.22-20.8 53.25-19.8 53.25-18.8L53.25-18.8Q53.25-17.8 53.27-16.78 53.3-15.75 53.35-14.75L53.35-14.75Q53.35-14.6 53.35-14.25L53.35-14.25Q53.4-13.4 53.5-12.53 53.6-11.65 54.15-10.95L54.15-10.95Q54.15-10.95 54.15-10.95L54.15-10.95Q54.15-10.95 54.15-10.95 54.15-10.95 54.15-10.95L54.15-10.95Q54.65-10.3 55.57-10.13 56.5-9.95 57.35-10.15L57.35-10.15 57.8-10.35 58.5-10.7Q58.75-10.9 58.92-11.13 59.1-11.35 59.2-11.55L59.2-11.55 58.5-11.35 57.65-11.1 56.9-10.8Q56.7-10.7 56.6-10.9L56.6-10.9Q56.5-11.1 56.7-11.2L56.7-11.2 57.45-11.55Q57.45-11.55 57.45-11.55L57.45-11.55Q57.5-11.55 57.5-11.55L57.5-11.55 58.35-11.75 59.1-12 59.5-12.1Q59.55-12.25 59.6-12.35L59.6-12.35Q59.65-12.45 59.75-12.6L59.75-12.6 59.1-12.4 58.3-12.1 57.4-11.8Q57.2-11.75 57.15-11.95L57.15-11.95Q57.05-12.2 57.3-12.25L57.3-12.25 58.15-12.55 59-12.8 59.7-13.05 60-13.15Q60.2-13.55 60.5-13.75L60.5-13.75Q61-14.15 61.65-14.2 62.3-14.25 62.9-14.25L62.9-14.25Q63.15-14.25 63.25-14.25L63.25-14.25 63.25-14.25Q63.25-14.25 63.25-14.25 63.25-14.25 63.25-14.25L63.25-14.25Q66.5-14.3 69.7-14.15L69.7-14.15Q70.15-14.15 70.6-14.13 71.05-14.1 71.5-14.1L71.5-14.1Q71.6-14.1 71.85-14.15L71.85-14.15Q72.1-14.15 72.32-14.15 72.55-14.15 72.8-14L72.8-14Q73.9-13.35 74.12-12.68 74.35-12 74.25-10.85L74.25-10.85Q74.1-9.3 73.5-7.58 72.9-5.85 71.9-4.6L71.9-4.6Q70.8-3.4 69.4-2.45 68-1.5 66.6-0.7L66.6-0.7Q65.85-0.05 64.45 0.35 63.05 0.75 61.4 0.98 59.75 1.2 58.25 1.3L58.25 1.3Q58.1 1.35 58.05 1.3L58.05 1.3Q57.8 1.3 57.55 1.3L57.55 1.3 57.25 1.35Q57.25 1.4 57.22 1.4 57.2 1.4 57.1 1.4L57.1 1.4Q57.1 1.4 57.1 1.4L57.1 1.4Q57.1 1.4 57.1 1.4L57.1 1.4 56.2 1.7Q56 1.75 55.9 1.55L55.9 1.55Q55.9 1.5 55.9 1.45L55.9 1.45 55.2 1.75Q55 1.85 54.9 1.65L54.9 1.65Q54.85 1.55 54.9 1.45L54.9 1.45 54.25 1.75Q54.05 1.85 53.95 1.65L53.95 1.65 53.3 1.85Q53.2 1.9 53.15 1.85L53.15 1.85Q52.9 1.95 52.85 1.7L52.85 1.7Q52.8 1.5 53 1.45L53 1.45 54.1 1.1Q54.1 1.1 54 1.1L54 1.1 53.65 1.2 52.9 1.4 52 1.65Q51.8 1.7 51.75 1.5L51.75 1.5Q51.75 1.5 51.75 1.5L51.75 1.5 51.05 1.75Q50.85 1.8 50.8 1.6L50.8 1.6Q50.75 1.5 50.7 1.45L50.7 1.45 49.9 1.75Q49.7 1.85 49.65 1.6L49.65 1.6Q49.6 1.55 49.65 1.45L49.65 1.45 48.9 1.7Q48.7 1.75 48.65 1.55L48.65 1.55Q48.55 1.3 48.8 1.25L48.8 1.25 49.65 1 50.35 0.65 50.6 0.5Q50.4 0.5 50.2 0.45L50.2 0.45 49.55 0.65 48.75 0.95 48 1.3Q47.8 1.4 47.7 1.2L47.7 1.2Q47.6 1 47.8 0.85L47.8 0.85 47 1.25Q46.8 1.35 46.7 1.15L46.7 1.15Q46.6 0.95 46.8 0.85L46.8 0.85 47.6 0.45Q47.6 0.45 47.6 0.45L47.6 0.45Q47.65 0.45 47.65 0.45L47.65 0.45 48.45 0.2 48.75 0.1Q48.65 0.05 48.45 0.1L48.45 0.1Q48.45 0.1 48.45 0.1L48.45 0.1Q48.45 0.1 48.45 0.1L48.45 0.1 47.75 0.35Q47.75 0.35 47.75 0.4L47.75 0.4Q47.7 0.4 47.7 0.4L47.7 0.4 46.9 0.6 46.15 0.95Q45.95 1 45.85 0.8L45.85 0.8Q45.75 0.6 45.95 0.5L45.95 0.5 46.75 0.2Q46.75 0.2 46.75 0.2L46.75 0.2Q46.75 0.2 46.75 0.2L46.75 0.2 47.6-0.05 47.9-0.15Q47.65-0.25 47.45-0.35L47.45-0.35 46.8-0.15 45.95 0.15 45.05 0.45Q44.85 0.5 44.8 0.3L44.8 0.3Q44.7 0.05 44.95 0L44.95 0 46.8-0.6Q46.65-0.65 46.5-0.65L46.5-0.65 45.7-0.35 44.8-0.05 43.95 0.2Q43.7 0.3 43.65 0.05L43.65 0.05Q43.6-0.15 43.8-0.2L43.8-0.2 44.65-0.5 45.55-0.8 46.05-0.95Q46-1 45.9-1.03 45.8-1.05 45.55-1L45.55-1Q45.55-1 45.55-1L45.55-1Q45.55-1 45.55-1L45.55-1 44.75-0.75Q44.75-0.75 44.75-0.75L44.75-0.75Q44.7-0.75 44.7-0.75L44.7-0.75 43.05-0.25Q42.85-0.2 42.8-0.4L42.8-0.4Q42.75-0.65 42.95-0.7L42.95-0.7 43.8-0.95 44.6-1.15 45.35-1.45Q45.2-1.55 45.1-1.65L45.1-1.65Q45-1.7 45-1.75L45-1.75 44.75-1.65 43.95-1.3 43.1-0.9 42.2-0.5Q42-0.4 41.9-0.65L41.9-0.65Q41.85-0.85 42.05-0.95L42.05-0.95 42.9-1.3 43.8-1.7 44.5-2.05Q44.45-2.1 44.35-2.13 44.25-2.15 44-2.1L44-2.1 43.15-1.8 42.45-1.5Q42.45-1.5 42.45-1.5L42.45-1.5Q42.45-1.5 42.45-1.5L42.45-1.5 41.7-1.25Q41.5-1.2 41.45-1.4L41.45-1.4Q41.35-1.65 41.6-1.7L41.6-1.7 42.3-1.9 43-2.2 43.8-2.55Q43.6-2.7 43.4-2.85L43.4-2.85 43.05-2.75Q43.05-2.75 43.05-2.75L43.05-2.75Q43.05-2.75 43.05-2.75L43.05-2.75 42.2-2.5 41.3-2.1Q41.3-2.1 41.3-2.1L41.3-2.1 40.6-1.85Q40.35-1.75 40.3-1.95L40.3-1.95Q40.2-2.2 40.4-2.25L40.4-2.25 41.15-2.55 42-2.9Q42-2.9 42.05-2.95L42.05-2.95Q42.05-2.95 42.05-2.95L42.05-2.95 43-3.2Q42.9-3.3 42.75-3.38 42.6-3.45 42.35-3.5L42.35-3.5 41.55-3.15Q41.55-3.15 41.55-3.15L41.55-3.15Q41.55-3.15 41.55-3.15L41.55-3.15 40.7-2.8Q40.7-2.8 40.67-2.8 40.65-2.8 40.65-2.8L40.65-2.8 40.65-2.8 39.95-2.6Q39.75-2.5 39.65-2.7L39.65-2.7Q39.6-2.95 39.8-3L39.8-3 40.5-3.25 41.4-3.55 42.15-3.95Q42.15-3.95 42.15-3.95L42.15-3.95Q42.2-3.95 42.2-3.95L42.2-3.95Q42.15-4.05 42.02-4.13 41.9-4.2 41.7-4.25L41.7-4.25 40.85-4.05 40.15-3.8 39.45-3.45Q39.25-3.35 39.15-3.55L39.15-3.55Q39.05-3.75 39.25-3.85L39.25-3.85 39.95-4.2Q39.95-4.2 40-4.2L40-4.2Q40-4.25 40-4.25L40-4.25 40.75-4.45Q40.75-4.45 40.75-4.45L40.75-4.45Q40.75-4.45 40.75-4.45L40.75-4.45 41.55-4.7Q41.4-4.9 41.2-5L41.2-5 40.35-4.6 39.45-4.2 38.65-3.85Q38.45-3.75 38.35-3.95L38.35-3.95Q38.25-4.15 38.45-4.25L38.45-4.25 39.3-4.65 40.15-5 41.05-5.4Q41-5.5 40.9-5.63 40.8-5.75 40.55-5.8L40.55-5.8 39.75-5.45 38.95-5.05 38.05-4.7Q37.85-4.6 37.75-4.8L37.75-4.8Q37.65-5 37.9-5.1L37.9-5.1 38.75-5.5 39.6-5.85 40.55-6.3Q40.5-6.4 40.42-6.53 40.35-6.65 40.15-6.7L40.15-6.7 39.25-6.3Q39.25-6.3 39.25-6.3L39.25-6.3Q39.25-6.3 39.25-6.3L39.25-6.3 38.45-6.05 37.6-5.8Q37.4-5.7 37.3-5.9L37.3-5.9Q37.25-6.15 37.45-6.2L37.45-6.2 38.35-6.5 39.1-6.7 40.2-7.2Q40.1-7.35 40.02-7.5 39.95-7.65 39.8-7.75L39.8-7.75 39.1-7.45Q39.1-7.45 39.05-7.45L39.05-7.45Q39.05-7.4 39.05-7.4L39.05-7.4 38.25-7.15 37.55-6.75Q37.35-6.65 37.25-6.85L37.25-6.85Q37.15-7.05 37.3-7.15L37.3-7.15 38.05-7.55Q38.05-7.55 38.05-7.55L38.05-7.55Q38.1-7.55 38.1-7.55L38.1-7.55 38.9-7.85 39.6-8.15Q39.6-8.15 39.65-8.2L39.65-8.2Q39.65-8.2 39.8-8.25L39.8-8.25Q39.7-8.55 39.55-8.65L39.55-8.65 38.65-8.3 37.95-7.95 37.15-7.6Q36.95-7.55 36.85-7.75L36.85-7.75Q36.8-7.95 37-8.05L37-8.05 37.75-8.35 38.5-8.7 39.55-9.15Q39.45-9.5 39.3-9.6L39.3-9.6Q39.3-9.6 39.3-9.6L39.3-9.6Q39.3-9.6 39.3-9.6L39.3-9.6 38.5-9.35 37.7-9.05 36.85-8.7Q36.65-8.6 36.6-8.8L36.6-8.8Q36.5-9.05 36.7-9.1L36.7-9.1 37.55-9.45 38.35-9.8Q38.35-9.8 38.35-9.8L38.35-9.8Q38.4-9.8 38.4-9.8L38.4-9.8 39.35-10.1Q39.25-10.45 39.1-10.55L39.1-10.55Q39.1-10.55 39.05-10.55L39.05-10.55Q39.05-10.5 39.05-10.5L39.05-10.5 38.2-10.3 37.35-10 36.65-9.65Q36.45-9.55 36.35-9.75L36.35-9.75Q36.25-9.95 36.45-10.05L36.45-10.05 37.15-10.4Q37.15-10.4 37.2-10.45L37.2-10.45Q37.2-10.45 37.2-10.45L37.2-10.45 38.05-10.7Q38.05-10.7 38.05-10.7L38.05-10.7Q38.05-10.75 38.05-10.75L38.05-10.75 39.15-11.05Q39.1-11.25 39.05-11.4 39-11.55 38.9-11.65L38.9-11.65 38.1-11.3Q38.1-11.3 38.05-11.3L38.05-11.3Q38.05-11.3 38.05-11.3L38.05-11.3 37.25-11 36.4-10.75Q36.2-10.65 36.15-10.85L36.15-10.85Q36.05-11.1 36.25-11.15L36.25-11.15 37.1-11.45 37.9-11.7 38.7-12.1Q38.7-12.1 38.75-12.1L38.75-12.1Q38.75-12.1 38.95-12.15L38.95-12.15Q38.95-12.25 38.95-12.35L38.95-12.35Q38.95-12.35 38.95-12.35L38.95-12.35Q38.95-12.35 38.95-12.35L38.95-12.35Q38.95-12.5 38.9-12.6L38.9-12.6 38.1-12.3 37.2-12 36.35-11.8Q36.1-11.7 36.05-11.95L36.05-11.95Q36-12.15 36.2-12.2L36.2-12.2 37.1-12.45 37.95-12.7 38.9-13.1Q38.9-13.4 38.9-13.75L38.9-13.75Q38.9-13.75 38.9-13.75L38.9-13.75 38.05-13.5 37.25-13.25 36.45-12.9Q36.25-12.8 36.2-13L36.2-13Q36.1-13.25 36.3-13.3L36.3-13.3 37.05-13.65Q37.05-13.65 37.1-13.65L37.1-13.65Q37.1-13.65 37.1-13.65L37.1-13.65 37.9-13.95Q37.9-13.95 37.9-13.95L37.9-13.95Q37.95-13.95 37.95-13.95L37.95-13.95 38.9-14.25Q38.9-14.4 38.87-14.58 38.85-14.75 38.7-14.9L38.7-14.9 37.95-14.6 37.25-14.25 36.5-13.85Q36.3-13.75 36.2-13.95L36.2-13.95Q36.1-14.15 36.3-14.25L36.3-14.25 37.05-14.65 37.75-15Q37.8-15.05 37.75-15.05L37.75-15.05Q37.8-15.05 37.8-15.05L37.8-15.05 38.55-15.3 38.95-15.45Q38.95-15.7 39-16.05L39-16.05 38.7-15.95Q38.7-15.95 38.7-15.95L38.7-15.95Q38.7-15.95 38.7-15.95L38.7-15.95 37.9-15.7 37.15-15.45 36.4-15.1Q36.2-15 36.1-15.25L36.1-15.25Q36-15.45 36.2-15.5L36.2-15.5 37-15.85 37.7-16.15Q37.7-16.15 37.75-16.15L37.75-16.15Q37.75-16.15 37.75-16.15L37.75-16.15 38.55-16.4 39.05-16.55 39.05-16.6Q39.05-16.75 39.07-16.9 39.1-17.05 39.1-17.2L39.1-17.2 38.75-17.1 38.05-16.85 37.15-16.5 36.3-16.1Q36.1-16.05 36-16.25L36-16.25Q35.9-16.45 36.1-16.55L36.1-16.55 37-16.9 37.85-17.25 38.6-17.55 39.15-17.7Q39.15-18 39.15-18.3L39.15-18.3 38.8-18.1Q38.8-18.1 38.8-18.1L38.8-18.1Q38.8-18.1 38.8-18.1L38.8-18.1 37.95-17.8 37.2-17.55 36.45-17.25Q36.2-17.2 36.15-17.4L36.15-17.4Q36.05-17.6 36.3-17.7L36.3-17.7 37.05-18 37.8-18.2 38.65-18.55 39.2-18.8Q39.2-19.1 39.2-19.45L39.2-19.45 38.75-19.3 38-19Q38-19 38-19L38-19Q38-19 38-19L38-19 37.25-18.75 36.5-18.4Q36.3-18.25 36.2-18.45L36.2-18.45Q36.1-18.65 36.3-18.8L36.3-18.8 37.05-19.15Q37.05-19.15 37.05-19.15L37.05-19.15Q37.1-19.2 37.1-19.2L37.1-19.2 37.85-19.4 38.6-19.75Q38.6-19.75 38.6-19.75L38.6-19.75Q38.6-19.75 38.6-19.75L38.6-19.75 39.2-19.95Q39.2-19.95 39.2-20L39.2-20Q39.2-20.35 39.2-20.5L39.2-20.5 38.85-20.35Q38.85-20.3 38.85-20.3L38.85-20.3 38.05-20 37.2-19.6 36.5-19.3Q36.25-19.2 36.2-19.4L36.2-19.4Q36.1-19.6 36.3-19.7L36.3-19.7 37-20 37.85-20.4 38.65-20.75 39.25-21Q39.25-21.35 39.25-21.65L39.25-21.65 38.9-21.55Q38.9-21.55 38.85-21.5L38.85-21.5Q38.85-21.5 38.85-21.5L38.85-21.5 38-21.3 37.25-21.05 36.45-20.75Q36.25-20.65 36.15-20.85L36.15-20.85Q36.05-21.05 36.3-21.15L36.3-21.15 37.05-21.5Q37.05-21.5 37.05-21.5L37.05-21.5Q37.1-21.5 37.1-21.5L37.1-21.5 37.85-21.75 38.75-21.95 39.3-22.15Q39.3-22.55 39.35-22.9L39.35-22.9 38.95-22.8 38.15-22.4Q38.15-22.4 38.15-22.4L38.15-22.4Q38.15-22.4 38.15-22.4L38.15-22.4 37.4-22.15 36.65-21.85Q36.45-21.75 36.35-21.95L36.35-21.95Q36.25-22.15 36.45-22.25L36.45-22.25 37.25-22.6Q37.25-22.6 37.25-22.6L37.25-22.6Q37.25-22.6 37.25-22.6L37.25-22.6 38-22.85 38.8-23.2Q38.8-23.2 38.8-23.2L38.8-23.2Q38.85-23.2 38.85-23.2L38.85-23.2 39.4-23.4Q39.45-23.65 39.5-23.9L39.5-23.9 39.05-23.75 38.25-23.5 37.4-23.25 36.7-23Q36.5-22.9 36.4-23.1L36.4-23.1Q36.3-23.3 36.5-23.4L36.5-23.4 37.25-23.7Q37.25-23.7 37.25-23.7L37.25-23.7Q37.3-23.7 37.3-23.7L37.3-23.7 38.15-23.95 38.9-24.15 39.65-24.4Q39.75-24.65 39.85-24.9L39.85-24.9 39.2-24.65 38.5-24.3Q38.5-24.3 38.5-24.3L38.5-24.3Q38.5-24.3 38.5-24.3L38.5-24.3 37.6-23.95 36.75-23.6Q36.55-23.55 36.45-23.75L36.45-23.75Q36.35-23.95 36.6-24.05L36.6-24.05 37.45-24.35 38.3-24.7 39-25.05Q39-25.05 39.05-25.05L39.05-25.05Q39.05-25.1 39.05-25.1L39.05-25.1 39.95-25.4Q40-25.45 40.05-25.4L40.05-25.4Q40.15-25.7 40.25-25.9L40.25-25.9 39.55-25.65 38.7-25.35 37.95-25.05 37.2-24.7Q37-24.6 36.9-24.8L36.9-24.8Q36.8-25 37-25.1L37-25.1 37.75-25.45Q37.75-25.45 37.75-25.45L37.75-25.45Q37.75-25.5 37.75-25.5L37.75-25.5 38.55-25.75 39.35-26.1Q39.4-26.1 39.4-26.1L39.4-26.1 40.2-26.4Q40.35-26.45 40.45-26.35L40.45-26.35Q40.55-26.6 40.7-26.9L40.7-26.9 39.8-26.55 39-26.2Q39-26.2 39-26.2L39-26.2Q39-26.2 39-26.2L39-26.2 38.1-25.9 37.35-25.5Q37.15-25.4 37.05-25.6L37.05-25.6Q36.95-25.85 37.15-25.95L37.15-25.95 37.95-26.3Q37.95-26.3 37.95-26.3L37.95-26.3Q37.95-26.3 37.95-26.3L37.95-26.3 38.85-26.6 39.65-27Q39.65-27 39.65-27L39.65-27Q39.65-27 39.65-27L39.65-27 40.55-27.3Q40.75-27.4 40.8-27.2L40.8-27.2Q40.95-27.5 41.1-27.8L41.1-27.8Q41.1-27.8 41.1-27.8L41.1-27.8 40.3-27.5 39.4-27.1 38.55-26.75 37.65-26.45Q37.45-26.35 37.35-26.55L37.35-26.55Q37.3-26.75 37.5-26.85L37.5-26.85 38.35-27.2 39.25-27.5 40.1-27.9 40.95-28.25Q41.15-28.3 41.25-28.1L41.25-28.1Q41.25-28.1 41.25-28.1L41.25-28.1Q41.4-28.35 41.55-28.65L41.55-28.65 40.7-28.3 39.85-27.95 38.95-27.6Q38.95-27.6 38.95-27.6L38.95-27.6Q38.95-27.6 38.95-27.6L38.95-27.6 38.15-27.35Q37.95-27.3 37.9-27.5L37.9-27.5Q37.85-27.7 38.05-27.8L38.05-27.8 38.9-28.05Q38.85-28.1 38.85-28.15L38.85-28.15Q38.75-28.35 38.95-28.45L38.95-28.45 39.8-28.85 40.5-29.2 41.25-29.55ZM61-0.15L61.35-0.25Q61.45-0.3 61.5-0.25L61.5-0.25 62.35-0.5Q62.45-0.5 62.6-0.45L62.6-0.45 63.3-0.75Q63.45-0.8 63.55-0.7L63.55-0.7 64.25-1.05Q64.45-1.15 64.55-0.95L64.55-0.95Q65.4-1.25 65.85-1.65L65.85-1.65Q65.85-1.65 65.9-1.7L65.9-1.7Q65.9-1.7 65.9-1.7L65.9-1.7Q67.25-2.5 68.6-3.38 69.95-4.25 71-5.4L71-5.4Q71.9-6.45 72.4-8.03 72.9-9.6 73.05-10.95L73.05-10.95Q73.1-11.05 73.1-11.2L73.1-11.2Q73.15-11.85 73.05-12.2 72.95-12.55 72.2-12.95L72.2-12.95Q72.1-13 71.7-12.95L71.7-12.95Q71.5-12.9 71.45-12.9L71.45-12.9Q71-12.9 70.55-12.93 70.1-12.95 69.65-12.95L69.65-12.95Q66.45-13.1 63.25-13.05L63.25-13.05Q63.15-13.05 62.9-13.05L62.9-13.05Q62.45-13.05 61.97-13.03 61.5-13 61.25-12.8L61.25-12.8Q61-12.65 60.9-12.33 60.8-12 60.65-11.8L60.65-11.8Q60.3-11.15 60.02-10.63 59.75-10.1 59.1-9.6L59.1-9.6Q59.1-9.6 59.1-9.6 59.1-9.6 59.1-9.6L59.1-9.6Q59.1-9.6 59.1-9.6 59.1-9.6 59.1-9.6L59.1-9.6Q58.25-9.05 57.12-8.9 56-8.75 54.92-9.05 53.85-9.35 53.2-10.2L53.2-10.2Q52.45-11.15 52.32-12.35 52.2-13.55 52.15-14.7L52.15-14.7Q52.1-15.7 52.07-16.73 52.05-17.75 52.05-18.75L52.05-18.75Q52.05-19.75 52.02-20.75 52-21.75 52-22.75L52-22.75Q52-23.3 52-23.83 52-24.35 52-24.85L52-24.85Q52-24.85 52-24.95L52-24.95Q52.05-25.05 52.05-25.05L52.05-25.05Q52.25-25.35 52.57-25.45 52.9-25.55 53.2-25.7L53.2-25.7Q54-26 54.85-26.08 55.7-26.15 56.55-26.15L56.55-26.15Q56.65-26.15 56.9-26.15L56.9-26.15Q57.15-26.2 57.35-26.2 57.55-26.2 57.8-26.1L57.8-26.1Q57.85-26.1 57.95-26.05L57.95-26.05Q58.1-26.05 58.15-25.95L58.15-25.95Q58.55-25.7 58.85-25.35L58.85-25.35Q59-25.35 59.1-25.2L59.1-25.2Q59.1-25.15 59.1-25.05L59.1-25.05Q59.3-24.75 59.5-24.4L59.5-24.4Q59.65-24.4 59.75-24.25L59.75-24.25Q59.75-24.1 59.7-24L59.7-24Q59.85-23.75 60-23.35L60-23.35Q60.15-23.35 60.2-23.2L60.2-23.2Q60.3-23.05 60.15-22.95L60.15-22.95Q60.2-22.75 60.22-22.55 60.25-22.35 60.35-22.25L60.35-22.25Q60.55-22.3 60.65-22.1L60.65-22.1Q60.65-22.05 60.65-22L60.65-22Q60.8-22 60.95-21.98 61.1-21.95 61.2-21.95L61.2-21.95Q61.2-21.95 61.35-22L61.35-22Q61.55-22.05 61.6-21.9L61.6-21.9Q61.75-21.85 61.9-21.85 62.05-21.85 62.4-21.95L62.4-21.95Q62.55-22 62.65-21.8L62.65-21.8Q62.8-21.8 62.95-21.83 63.1-21.85 63.4-21.9L63.4-21.9Q63.6-22 63.7-21.8L63.7-21.8Q63.7-21.75 63.7-21.75L63.7-21.75Q63.85-21.75 63.95-21.75L63.95-21.75 64.45-21.9Q64.7-21.95 64.75-21.75L64.75-21.75Q64.75-21.7 64.75-21.65L64.75-21.65Q64.9-21.65 65.05-21.65L65.05-21.65 65.45-21.85Q65.65-22 65.8-21.8L65.8-21.8Q65.8-21.7 65.8-21.65L65.8-21.65Q65.9-21.6 65.95-21.6L65.95-21.6 66.55-21.9Q66.75-21.95 66.85-21.75L66.85-21.75Q66.85-21.7 66.85-21.6L66.85-21.6Q66.85-21.6 66.85-21.6L66.85-21.6 67.6-21.9Q67.8-21.95 67.9-21.75L67.9-21.75Q67.9-21.65 67.9-21.6L67.9-21.6Q67.95-21.6 68.05-21.6L68.05-21.6 68.6-21.85Q68.8-21.95 68.9-21.75L68.9-21.75Q68.95-21.65 68.9-21.55L68.9-21.55Q68.9-21.55 68.95-21.55L68.95-21.55 69.65-21.9Q69.85-21.95 69.95-21.75L69.95-21.75Q70-21.65 69.95-21.55L69.95-21.55Q69.95-21.55 69.97-21.55 70-21.55 70-21.55L70-21.55 70.7-21.85Q70.9-21.95 71-21.75L71-21.75Q71.05-21.6 70.95-21.5L70.95-21.5Q71.05-21.5 71.25-21.5L71.25-21.5 71.95-21.85Q72.15-21.95 72.25-21.75L72.25-21.75Q72.3-21.7 72.3-21.65L72.3-21.65Q72.6-21.85 72.85-22.35L72.85-22.35Q72.9-22.5 72.8-22.9L72.8-22.9Q72.75-23.1 72.75-23.15L72.75-23.15Q72.65-24.6 72.15-26.1L72.15-26.1Q71.7-27.25 71.07-28.38 70.45-29.5 69.55-30.4L69.55-30.4Q68.85-31.1 67.95-31.68 67.05-32.25 66.15-32.75L66.15-32.75Q65.05-33.35 63.85-33.85 62.65-34.35 61.45-34.75L61.45-34.75Q60.2-35.15 58.8-35.2 57.4-35.25 56.1-35.3L56.1-35.3Q54.9-35.35 53.67-35.3 52.45-35.25 51.25-35L51.25-35Q50.65-34.85 49.97-34.65 49.3-34.45 48.65-34.2L48.65-34.2Q48.6-34.15 48.55-34.15L48.55-34.15 47.85-33.75Q47.85-33.75 47.8-33.75L47.8-33.75Q47.8-33.75 47.8-33.75L47.8-33.75 47.1-33.5Q46.05-32.95 45.4-32.3L45.4-32.3Q45.4-32.3 45.4-32.3 45.4-32.3 45.4-32.3L45.4-32.3Q45.4-32.3 45.4-32.3 45.4-32.3 45.4-32.3L45.4-32.3Q44.4-31.35 43.52-29.85 42.65-28.35 41.92-26.73 41.2-25.1 40.7-23.8L40.7-23.8Q40.5-22.85 40.45-21.85 40.4-20.85 40.4-19.85L40.4-19.85Q40.4-19.3 40.37-18.73 40.35-18.15 40.3-17.6L40.3-17.6Q40.3-17.3 40.27-17.03 40.25-16.75 40.25-16.5L40.25-16.5Q40.15-15.5 40.1-14.48 40.05-13.45 40.15-12.45L40.15-12.45Q40.25-11.4 40.57-10 40.9-8.6 41.42-7.3 41.95-6 42.7-5.25L42.7-5.25Q42.7-5.25 42.7-5.2L42.7-5.2Q42.75-5.2 42.75-5.2L42.75-5.2Q43.35-4.4 44.12-3.78 44.9-3.15 45.8-2.65L45.8-2.65Q45.8-2.65 45.8-2.6L45.8-2.6Q45.85-2.6 45.85-2.6L45.85-2.6Q46.7-1.75 48.42-1.23 50.15-0.7 51.97-0.43 53.8-0.15 55 0L55 0 55.95 0.05Q56.65 0.1 57.85 0.08 59.05 0.05 60.35-0.1L60.35-0.1Q60.4-0.1 60.4-0.1L60.4-0.1Q60.7-0.15 61-0.15L61-0.15ZM40.55-28.7L41.4-29.1Q41.6-29.2 41.7-29L41.7-29Q41.8-29.2 41.9-29.4L41.9-29.4 41.4-29.15 40.55-28.7ZM50.65 1L51.4 0.65Q51.35 0.65 51.3 0.7L51.3 0.7 50.65 1ZM51.75 1L52.35 0.85Q52.25 0.8 52.15 0.8L52.15 0.8 51.75 1ZM90.1-7.3L89.45-7.05Q89.5-6.05 89.52-5.08 89.55-4.1 89.55-3.15L89.55-3.15Q89.55-2.9 89.55-2.68 89.55-2.45 89.55-2.15L89.55-2.15Q89.55-2.1 89.55-1.95L89.55-1.95Q89.55-1.35 89.47-0.78 89.4-0.2 88.9 0.3L88.9 0.3Q88.3 0.85 87.6 0.9 86.9 0.95 86.15 0.85L86.15 0.85Q85.95 0.85 85.85 0.85L85.85 0.85 85.1 1.2 84.3 1.55Q84.1 1.65 84 1.45L84 1.45Q83.9 1.25 84.1 1.15L84.1 1.15 84.6 0.9 84.2 1.05 83.45 1.4Q83.25 1.5 83.15 1.3L83.15 1.3Q83.15 1.25 83.15 1.2L83.15 1.2 82.55 1.35Q82.35 1.45 82.25 1.25L82.25 1.25 81.85 1.35Q81.6 1.45 81.55 1.25L81.55 1.25Q81.5 1.15 81.45 1.15L81.45 1.15Q81.45 1.15 81.45 1.15L81.45 1.15Q81.45 1.15 81.45 1.15L81.45 1.15 80.65 1.4Q80.4 1.5 80.35 1.3L80.35 1.3Q80.3 1.2 80.35 1.1L80.35 1.1 79.85 1.2Q79.65 1.3 79.6 1.05L79.6 1.05Q79.6 1.05 79.6 1L79.6 1 78.85 1.35Q78.65 1.45 78.55 1.25L78.55 1.25Q78.5 1.25 78.35 1.25L78.35 1.25Q78.15 1.35 78.1 1.15L78.1 1.15Q78 0.95 78 0.95L78 0.95Q78 0.95 78 0.95L78 0.95Q77.95 0.95 77.95 0.95L77.95 0.95 77.15 1.15Q77 1.2 76.9 1.05L76.9 1.05 76.15 1.25Q75.95 1.35 75.85 1.15L75.85 1.15 75.5 1.25Q75.35 1.3 75.25 1.2L75.25 1.2Q75.05 1.3 74.95 1.1L74.95 1.1Q74.9 0.9 75.1 0.8L75.1 0.8 75.95 0.45Q75.95 0.45 76 0.45L76 0.45Q76 0.45 76 0.45L76 0.45 76.7 0.25Q76.7 0.25 76.7 0.25L76.7 0.25Q76.7 0.2 76.8 0.2L76.8 0.2Q76.8 0.2 76.85 0.2L76.85 0.2Q76.85 0.2 77.05 0.1L77.05 0.1Q77 0.1 76.85 0.1L76.85 0.1Q76.85 0.1 76.8 0.1L76.8 0.1Q76.8 0.1 76.8 0.1L76.8 0.1 76 0.4 75.1 0.8Q75.1 0.8 75.1 0.8L75.1 0.8Q75.1 0.8 75.1 0.8L75.1 0.8 74.4 1Q74.15 1.1 74.1 0.9L74.1 0.9Q74.05 0.65 74.25 0.6L74.25 0.6 74.95 0.35 75.8 0Q75.8 0 75.85 0L75.85 0Q75.85 0 75.85 0L75.85 0 76.7-0.3Q76.6-0.5 76.52-0.65 76.45-0.8 76.35-1L76.35-1 75.65-0.7 74.95-0.4Q74.95-0.4 74.9-0.4L74.9-0.4Q74.9-0.4 74.9-0.4L74.9-0.4 74.2-0.2Q74-0.1 73.9-0.3L73.9-0.3Q73.85-0.55 74.05-0.6L74.05-0.6 74.75-0.85 75.5-1.1 76.2-1.4Q76.2-1.4 76.25-1.4L76.25-1.4Q76.25-1.4 76.25-1.4L76.25-1.4Q76.25-1.6 76.25-1.85L76.25-1.85 75.65-1.6Q75.65-1.6 75.65-1.6L75.65-1.6Q75.65-1.6 75.65-1.6L75.65-1.6 74.9-1.25Q74.9-1.25 74.85-1.25L74.85-1.25Q74.85-1.25 74.85-1.25L74.85-1.25 74-1Q73.75-0.95 73.7-1.15L73.7-1.15Q73.65-1.4 73.85-1.45L73.85-1.45 74.75-1.65 75.45-2 76.25-2.35Q76.25-2.35 76.25-2.35L76.25-2.35Q76.25-2.4 76.3-2.4L76.3-2.4Q76.3-2.4 76.3-2.4 76.3-2.4 76.3-2.4L76.3-2.4Q76.3-2.55 76.3-2.7L76.3-2.7 75.75-2.4Q75.75-2.4 75.75-2.4L75.75-2.4Q75.75-2.4 75.75-2.4L75.75-2.4 74.9-2.1Q74.9-2.1 74.9-2.1L74.9-2.1Q74.9-2.1 74.9-2.1L74.9-2.1 74.05-1.9Q73.8-1.85 73.75-2.05L73.75-2.05Q73.7-2.25 73.9-2.3L73.9-2.3 74.8-2.55 75.6-2.8 76.3-3.2Q76.3-3.35 76.3-3.5 76.3-3.65 76.3-3.8L76.3-3.8 75.65-3.65 74.95-3.35 74.2-3Q74-2.95 73.9-3.15L73.9-3.15Q73.8-3.35 74-3.45L74-3.45 74.75-3.75Q74.75-3.75 74.75-3.75L74.75-3.75Q74.75-3.75 74.75-3.75L74.75-3.75 75.5-4.05Q75.5-4.05 75.5-4.05L75.5-4.05Q75.5-4.05 75.5-4.05L75.5-4.05 76.3-4.3 76.3-4.3Q76.35-4.55 76.35-4.85L76.35-4.85 75.6-4.6 74.05-4.15Q73.85-4.1 73.75-4.3L73.75-4.3Q73.7-4.5 73.9-4.55L73.9-4.55 74.7-4.8 75.45-5.05 76.35-5.3Q76.35-5.55 76.35-5.7L76.35-5.7 75.65-5.45Q75.65-5.45 75.65-5.45L75.65-5.45Q75.65-5.45 75.65-5.45L75.65-5.45 74.9-5.2 74.1-4.9Q73.9-4.8 73.8-5L73.8-5Q73.7-5.2 73.95-5.3L73.95-5.3 74.7-5.6Q74.7-5.6 74.7-5.65L74.7-5.65Q74.75-5.65 74.75-5.65L74.75-5.65 75.5-5.85 76.35-6.2Q76.35-6.5 76.35-6.8L76.35-6.8 75.6-6.6 74.9-6.3 74.05-5.9Q73.85-5.8 73.75-6L73.75-6Q73.65-6.2 73.85-6.3L73.85-6.3 74.7-6.7 75.4-7.05Q75.45-7.05 75.45-7.05L75.45-7.05Q75.45-7.05 75.45-7.05L75.45-7.05 76.35-7.3Q76.35-7.65 76.3-7.85L76.3-7.85 75.6-7.55 74.75-7.2Q74.7-7.2 74.7-7.2L74.7-7.2Q74.7-7.2 74.7-7.2L74.7-7.2 73.85-7Q73.6-6.9 73.55-7.15L73.55-7.15Q73.5-7.35 73.7-7.4L73.7-7.4 74.6-7.65 75.45-7.95 76.15-8.25Q76.15-8.25 76.2-8.25L76.2-8.25Q76.2-8.25 76.35-8.3L76.35-8.3Q76.35-8.55 76.35-8.7L76.35-8.7Q76.35-8.7 76.32-8.7 76.3-8.7 76.3-8.7L76.3-8.7Q76.3-8.7 76.3-8.7L76.3-8.7 75.45-8.45 74.65-8.2 73.75-7.8Q73.55-7.7 73.45-7.95L73.45-7.95Q73.35-8.15 73.6-8.25L73.6-8.25 74.45-8.6Q74.45-8.6 74.45-8.6L74.45-8.6Q74.5-8.6 74.5-8.6L74.5-8.6 75.3-8.9Q75.3-8.9 75.3-8.9L75.3-8.9Q75.3-8.9 75.3-8.9L75.3-8.9 76.35-9.2Q76.3-9.5 76.3-9.7L76.3-9.7 75.65-9.35Q75.65-9.35 75.65-9.35L75.65-9.35 74.9-9 74.15-8.75Q73.95-8.65 73.85-8.85L73.85-8.85Q73.8-9.1 74-9.15L74-9.15 74.7-9.45 75.45-9.75 76.25-10.15Q76.25-10.15 76.25-10.15L76.25-10.15Q76.25-10.15 76.3-10.15L76.3-10.15 76.3-10.7 75.7-10.5Q75.7-10.5 75.7-10.5L75.7-10.5Q75.7-10.5 75.7-10.5L75.7-10.5 74.85-10.25 74-9.95Q73.8-9.9 73.7-10.1L73.7-10.1Q73.65-10.35 73.85-10.4L73.85-10.4 74.75-10.7 75.55-10.9 76.3-11.2Q76.3-11.3 76.3-11.5L76.3-11.5 75.7-11.3 75-11 74.15-10.6Q73.95-10.5 73.85-10.7L73.85-10.7Q73.75-10.9 73.95-11L73.95-11 74.8-11.4 75.5-11.75Q75.5-11.75 75.55-11.75L75.55-11.75Q75.55-11.75 75.55-11.75L75.55-11.75 76.3-12Q76.25-12.3 76.25-12.55L76.25-12.55 75.55-12.3Q75.55-12.3 75.55-12.3L75.55-12.3Q75.55-12.3 75.55-12.3L75.55-12.3 74.65-12.05 73.9-11.8Q73.7-11.7 73.6-11.9L73.6-11.9Q73.55-12.1 73.75-12.2L73.75-12.2 74.5-12.5Q74.5-12.5 74.55-12.5L74.55-12.5Q74.55-12.5 74.55-12.5L74.55-12.5 75.4-12.7 76.25-13.05Q76.25-13.35 76.25-13.6L76.25-13.6 75.6-13.3 74.85-12.95 74.05-12.55Q73.85-12.45 73.75-12.65L73.75-12.65Q73.65-12.85 73.85-12.95L73.85-12.95 74.65-13.35 75.4-13.75Q75.4-13.75 75.45-13.75L75.45-13.75 76.25-14.1Q76.25-14.3 76.25-14.5L76.25-14.5 75.5-14.25 74.75-13.9 73.95-13.6Q73.75-13.5 73.65-13.7L73.65-13.7Q73.55-13.9 73.8-14L73.8-14 75.35-14.65Q75.35-14.65 75.35-14.65L75.35-14.65Q75.35-14.65 75.35-14.65L75.35-14.65 76.25-14.95Q76.25-15.3 76.25-15.65L76.25-15.65 75.6-15.45 74.9-15.15Q74.9-15.15 74.85-15.15L74.85-15.15Q74.85-15.15 74.85-15.15L74.85-15.15 74.05-14.9Q73.8-14.85 73.75-15.05L73.75-15.05Q73.7-15.3 73.9-15.35L73.9-15.35 74.75-15.55 75.45-15.85Q75.45-15.85 75.45-15.85L75.45-15.85Q75.45-15.85 75.45-15.85L75.45-15.85 76.2-16.1Q76.2-16.1 76.25-16.1L76.25-16.1Q76.25-16.3 76.25-16.55L76.25-16.55 75.55-16.35 74.85-16.1 74.1-15.8Q73.9-15.7 73.8-15.9L73.8-15.9Q73.7-16.1 73.9-16.2L73.9-16.2 74.65-16.55Q74.65-16.55 74.65-16.55L74.65-16.55Q74.7-16.55 74.7-16.55L74.7-16.55 75.4-16.8 76.25-17.05Q76.25-17.25 76.25-17.55L76.25-17.55 75.65-17.25Q75.65-17.25 75.65-17.25L75.65-17.25Q75.65-17.25 75.65-17.25L75.65-17.25 74.75-16.95 74-16.65Q73.8-16.6 73.7-16.8L73.7-16.8Q73.65-17 73.85-17.1L73.85-17.1 74.65-17.4 75.5-17.65 76.2-18Q76.2-18 76.2-18.05L76.2-18.05Q76.25-18.05 76.25-18.05L76.25-18.05Q76.25-18.35 76.25-18.55L76.25-18.55 75.6-18.35 74.9-18.15 74.15-17.8Q73.95-17.7 73.85-17.9L73.85-17.9Q73.75-18.1 73.95-18.2L73.95-18.2 74.7-18.55Q74.7-18.55 74.7-18.55L74.7-18.55Q74.75-18.55 74.75-18.55L74.75-18.55 75.45-18.8 76.25-19.05Q76.25-19.25 76.25-19.5L76.25-19.5 75.5-19.25 74.8-18.9 74.05-18.55Q73.85-18.45 73.75-18.65L73.75-18.65Q73.65-18.85 73.85-18.95L73.85-18.95 74.6-19.3 75.3-19.65Q75.3-19.65 75.35-19.65L75.35-19.65Q75.35-19.65 75.35-19.65L75.35-19.65 76.25-19.95Q76.25-20.2 76.25-20.45L76.25-20.45 75.65-20.25 74.9-20 74.1-19.6Q73.9-19.5 73.8-19.7L73.8-19.7Q73.7-19.9 73.9-20L73.9-20 74.7-20.4Q74.7-20.4 74.7-20.4L74.7-20.4Q74.7-20.4 74.7-20.4L74.7-20.4 75.5-20.7Q75.5-20.7 75.5-20.7L75.5-20.7Q75.5-20.7 75.5-20.7L75.5-20.7 76.25-20.9Q76.2-21.15 76.2-21.45L76.2-21.45 75.7-21.2 74.9-20.8 74-20.45Q73.8-20.35 73.7-20.55L73.7-20.55Q73.6-20.75 73.85-20.85L73.85-20.85 74.7-21.25 75.5-21.6 76.2-21.9Q76.2-22.1 76.15-22.35L76.15-22.35Q76.15-22.4 76.15-22.4L76.15-22.4 75.7-22.25 75-21.9 74.15-21.5Q73.95-21.4 73.85-21.65L73.85-21.65Q73.75-21.85 73.95-21.95L73.95-21.95 74.8-22.3 75.5-22.65Q75.5-22.65 75.55-22.65L75.55-22.65Q75.55-22.65 75.55-22.65L75.55-22.65 76.15-22.85Q76.15-23.05 76.1-23.2L76.1-23.2 75.65-22.95Q75.65-22.95 75.65-22.95L75.65-22.95Q75.65-22.95 75.65-22.95L75.65-22.95 74.9-22.7 74.05-22.35Q73.85-22.25 73.75-22.45L73.75-22.45Q73.7-22.7 73.9-22.75L73.9-22.75 74.7-23.1 75.5-23.35 76.1-23.7Q76.1-24.05 76.05-24.3L76.05-24.3 75.7-24.15 75-23.8Q75-23.8 75-23.8L75-23.8Q74.95-23.8 74.95-23.8L74.95-23.8 74.1-23.5Q73.9-23.45 73.8-23.65L73.8-23.65Q73.75-23.9 73.95-23.95L73.95-23.95 74.8-24.2 75.5-24.55 76.05-24.8Q76.05-24.95 76.05-25.1L76.05-25.1 75.65-24.9Q75.65-24.9 75.65-24.9L75.65-24.9Q75.65-24.9 75.65-24.9L75.65-24.9 74.75-24.7 73.95-24.45Q73.7-24.4 73.65-24.6L73.65-24.6Q73.6-24.8 73.8-24.9L73.8-24.9 74.65-25.1 75.5-25.35 76.05-25.65Q76.05-25.85 76.05-26.05L76.05-26.05 75.7-25.9Q75.7-25.9 75.7-25.9L75.7-25.9Q75.7-25.9 75.7-25.9L75.7-25.9 74.85-25.6 74.1-25.25Q73.9-25.15 73.8-25.35L73.8-25.35Q73.7-25.55 73.9-25.65L73.9-25.65 74.65-26Q74.65-26 74.65-26.05L74.65-26.05Q74.7-26.05 74.7-26.05L74.7-26.05 75.55-26.3 76.05-26.55Q76.05-26.9 76.1-27.2L76.1-27.2 75.55-27Q75.55-27 75.55-26.95L75.55-26.95Q75.55-26.95 75.55-26.95L75.55-26.95 74.7-26.7 73.9-26.4Q73.7-26.35 73.6-26.55L73.6-26.55Q73.55-26.75 73.75-26.85L73.75-26.85 74.6-27.1 75.4-27.4 76.1-27.7Q76.1-27.9 76.1-28.1L76.1-28.1 75.6-27.85Q75.6-27.85 75.6-27.85L75.6-27.85Q75.6-27.85 75.6-27.85L75.6-27.85 74.8-27.5 74-27.15Q73.8-27.05 73.7-27.25L73.7-27.25Q73.6-27.45 73.8-27.55L73.8-27.55 74.6-27.95Q74.6-27.95 74.6-27.95L74.6-27.95Q74.6-27.95 74.6-27.95L74.6-27.95 75.4-28.25 76.1-28.65Q76.15-28.9 76.15-29.2L76.15-29.2 75.6-29 74.8-28.7 74.05-28.4Q73.85-28.35 73.75-28.55L73.75-28.55Q73.7-28.75 73.9-28.85L73.9-28.85 74.65-29.1 75.45-29.4 76.15-29.7Q76.15-30 76.15-30.25L76.15-30.25 75.55-30 74.85-29.65 74.05-29.25Q73.85-29.15 73.75-29.35L73.75-29.35Q73.65-29.55 73.85-29.65L73.85-29.65 74.65-30.05 75.35-30.4Q75.35-30.4 75.4-30.4L75.4-30.4Q75.4-30.45 75.4-30.45L75.4-30.45 76.15-30.7Q76.15-31 76.15-31.2L76.15-31.2 75.6-31 74.8-30.75 73.95-30.45Q73.75-30.4 73.65-30.6L73.65-30.6Q73.6-30.85 73.8-30.9L73.8-30.9 74.7-31.2 75.45-31.4 76.15-31.7Q76.2-32 76.2-32.15L76.2-32.15 75.7-31.9 74.95-31.55Q74.95-31.55 74.95-31.55L74.95-31.55 74.1-31.2Q73.9-31.1 73.8-31.35L73.8-31.35Q73.75-31.55 73.95-31.6L73.95-31.6 74.75-31.95 75.5-32.3 76.2-32.7 76.2-32.8 76.2-32.8Q76.2-32.85 76.2-32.95L76.2-32.95Q76.2-33.05 76.2-33.05L76.2-33.05 75.65-32.9 74.9-32.65 74.05-32.35Q73.85-32.25 73.75-32.45L73.75-32.45Q73.7-32.65 73.9-32.75L73.9-32.75 74.8-33.1 75.5-33.3 76.2-33.5Q76.2-33.6 76.2-33.7L76.2-33.7 75.45-33.45Q75.25-33.35 75.15-33.55L75.15-33.55Q75.15-33.6 75.15-33.6L75.15-33.6 74.5-33.3Q74.3-33.2 74.2-33.4L74.2-33.4Q74.1-33.6 74.3-33.7L74.3-33.7 75.1-34.1Q75.1-34.1 75.1-34.1L75.1-34.1Q75.15-34.1 75.15-34.1L75.15-34.1 75.95-34.4 76.4-34.55Q76.55-35 76.9-35.35L76.9-35.35Q77.4-35.8 78-35.88 78.6-35.95 79.25-35.9L79.25-35.9Q79.45-35.9 79.5-35.9L79.5-35.9Q81-35.9 82.45-35.85 83.9-35.8 85.4-35.75L85.4-35.75Q85.4-35.75 85.4-35.75L85.4-35.75Q85.4-35.75 85.4-35.75L85.4-35.75Q85.5-35.75 85.7-35.75L85.7-35.75Q86.3-35.75 86.9-35.68 87.5-35.6 88-35.35L88-35.35Q88.4-35.15 88.65-34.85 88.9-34.55 89.15-34.25L89.15-34.25Q89.65-33.7 90.05-33.02 90.45-32.35 90.9-31.7L90.9-31.7Q91.55-30.7 92.17-29.73 92.8-28.75 93.4-27.7L93.4-27.7Q93.6-27.35 93.8-26.9L93.8-26.9 94.25-27.1Q94.25-27.1 94.3-27.1L94.3-27.1Q94.3-27.1 94.3-27.1L94.3-27.1 95.15-27.3 95.95-27.7 96.25-27.8Q96.25-28.2 96.1-28.35L96.1-28.35 95.35-28.1 94.5-27.85 93.75-27.6Q93.55-27.55 93.45-27.75L93.45-27.75Q93.4-27.95 93.6-28.05L93.6-28.05 94.4-28.25 95.2-28.55 96.2-28.85Q96.2-29.05 96.2-29.3L96.2-29.3 95.5-29Q95.5-29 95.5-29L95.5-29Q95.5-29 95.5-29L95.5-29 94.6-28.7 93.75-28.5Q93.5-28.4 93.45-28.65L93.45-28.65Q93.4-28.85 93.6-28.9L93.6-28.9 94.5-29.15 95.35-29.4 96.15-29.8Q96.15-30 96.15-30.25L96.15-30.25 95.3-29.95 94.55-29.65 93.75-29.35Q93.55-29.3 93.45-29.5L93.45-29.5Q93.4-29.7 93.6-29.8L93.6-29.8 94.35-30.05 95.15-30.4Q95.15-30.4 95.15-30.4L95.15-30.4Q95.15-30.4 95.15-30.4L95.15-30.4 96.1-30.7Q96.1-31.05 96.05-31.25L96.05-31.25 95.2-30.95 94.4-30.6 93.55-30.3Q93.35-30.2 93.25-30.4L93.25-30.4Q93.2-30.6 93.4-30.7L93.4-30.7 94.2-31.05 95.05-31.35 96.05-31.7Q96.05-31.9 96-32.25L96-32.25 95.3-31.95Q95.3-31.95 95.3-31.9L95.3-31.9 94.5-31.6 93.6-31.2Q93.4-31.1 93.3-31.35L93.3-31.35Q93.2-31.55 93.45-31.6L93.45-31.6 94.3-32 95.15-32.35 95.9-32.7Q95.9-32.7 95.9-32.7L95.9-32.7Q95.95-32.75 96-32.75L96-32.75Q95.95-32.95 95.95-33.15L95.95-33.15 95.25-32.85 94.45-32.55 93.6-32.25Q93.4-32.15 93.3-32.35L93.3-32.35Q93.25-32.55 93.45-32.65L93.45-32.65 94.25-32.95Q94.1-33 94.05-33.1L94.05-33.1Q93.95-33.3 94.15-33.4L94.15-33.4 94.9-33.75Q94.85-33.8 94.8-33.85L94.8-33.85Q94.75-34.05 94.95-34.15L94.95-34.15 95.75-34.5Q95.8-34.5 95.8-34.5L95.8-34.5 96.3-34.65Q96.4-34.9 96.65-35.15L96.65-35.15Q97.1-35.6 97.65-35.68 98.2-35.75 98.8-35.8L98.8-35.8Q99-35.8 99.1-35.8L99.1-35.8Q99.35-35.8 99.57-35.83 99.8-35.85 100.05-35.85L100.05-35.85Q101.55-35.95 103.05-35.95 104.55-35.95 106.05-35.95L106.05-35.95Q106.05-35.95 106.05-35.95 106.05-35.95 106.05-35.95L106.05-35.95 106.05-35.95Q106.2-35.95 106.37-35.95 106.55-35.95 106.7-35.95L106.7-35.95Q107.4-36 108.12-35.93 108.85-35.85 109.35-35.25L109.35-35.25Q109.85-34.75 109.9-34.18 109.95-33.6 109.9-33L109.9-33Q109.9-32.8 109.9-32.75L109.9-32.75Q109.8-31.5 109.77-30.28 109.75-29.05 109.7-27.8L109.7-27.8Q109.7-27.05 109.7-26.33 109.7-25.6 109.7-24.85L109.7-24.85Q109.7-23.85 109.7-22.85 109.7-21.85 109.65-20.9L109.65-20.9Q109.6-19.65 109.5-18.43 109.4-17.2 109.3-16L109.3-16Q109.2-14.8 109.2-13.6 109.2-12.4 109.15-11.2L109.15-11.2Q109.15-11 109.15-10.65L109.15-10.65Q109.15-9.85 109.15-9.05 109.15-8.25 109.15-7.45L109.15-7.45Q109.15-7.45 109.15-7.45L109.15-7.45 109.15-7.45Q109.2-6.2 109.25-5 109.3-3.8 109.3-2.55L109.3-2.55Q109.3-2.5 109.35-2.3L109.35-2.3Q109.35-1.7 109.27-1.1 109.2-0.5 108.75 0.05L108.75 0.05Q108.5 0.3 108.15 0.45 107.8 0.6 107.45 0.7L107.45 0.7Q107.45 0.7 107.4 0.75L107.4 0.75Q107.3 0.75 107.3 0.75L107.3 0.75Q106.85 0.75 106.4 0.78 105.95 0.8 105.5 0.85L105.5 0.85 105.05 1.05 104.15 1.35Q103.95 1.45 103.85 1.25L103.85 1.25Q103.8 1.15 103.85 1.15L103.85 1.15 103 1.35Q102.8 1.45 102.7 1.2L102.7 1.2Q102.7 1.2 102.7 1.15L102.7 1.15 102.25 1.3Q102.1 1.4 102 1.25L102 1.25 101.25 1.4Q101.05 1.5 101 1.25L101 1.25Q101 1.25 101 1.15L101 1.15Q101 1.15 101 1.15L101 1.15Q100.95 1.15 100.95 1.15L100.95 1.15 100.1 1.35Q99.9 1.4 99.85 1.25L99.85 1.25 99.35 1.4Q99.15 1.5 99.05 1.3L99.05 1.3Q99.05 1.2 99.05 1.15L99.05 1.15 98.25 1.45Q98 1.55 97.95 1.35L97.95 1.35Q97.85 1.15 98.05 1.05L98.05 1.05 98.95 0.7Q98.9 0.7 98.75 0.7L98.75 0.7 97.95 0.95 97.1 1.2Q96.85 1.3 96.8 1.1L96.8 1.1Q96.8 1 96.8 0.95L96.8 0.95 96.4 1.05Q96.15 1.15 96.1 0.9L96.1 0.9Q96.1 0.8 95.95 0.85L95.95 0.85Q95.95 0.85 95.95 0.85L95.95 0.85Q95.9 0.85 95.9 0.85L95.9 0.85 95.05 1.15Q94.85 1.2 94.75 1L94.75 1Q94.7 0.75 94.9 0.7L94.9 0.7 95.75 0.4 96.45 0.1 97.2-0.3Q97.2-0.3 97.2-0.3L97.2-0.3Q97.25-0.3 97.3-0.3L97.3-0.3Q97.25-0.4 97.17-0.48 97.1-0.55 97.05-0.65L97.05-0.65Q97-0.7 96.9-0.8L96.9-0.8 96.6-0.65Q96.6-0.65 96.6-0.65L96.6-0.65Q96.55-0.65 96.55-0.6L96.55-0.6 95.85-0.4 95.05-0.15 94.3 0.2Q94.1 0.3 94 0.1L94 0.1Q93.9-0.1 94.1-0.2L94.1-0.2 94.85-0.55Q94.85-0.55 94.85-0.6L94.85-0.6Q94.9-0.6 94.9-0.6L94.9-0.6 95.7-0.8 96.65-1.15Q96.5-1.3 96.35-1.55L96.35-1.55 96-1.4 95.2-1.15 94.5-0.85 93.75-0.5Q93.55-0.4 93.45-0.6L93.45-0.6Q93.35-0.8 93.55-0.9L93.55-0.9 94.3-1.25Q94.3-1.25 94.35-1.25L94.35-1.25Q94.35-1.3 94.35-1.3L94.35-1.3 95.05-1.55 96.1-1.95Q95.95-2.15 95.8-2.3L95.8-2.3Q95.8-2.35 95.6-2.25L95.6-2.25Q95.6-2.25 95.55-2.25L95.55-2.25Q95.55-2.25 95.55-2.25L95.55-2.25 94.8-2.05 94-1.75 93.15-1.45Q92.9-1.4 92.85-1.6L92.85-1.6Q92.8-1.85 93-1.9L93-1.9 93.85-2.2 94.65-2.45Q94.65-2.45 94.65-2.45L94.65-2.45 95.5-2.75Q95.3-3 95.1-3.1L95.1-3.1 94.35-2.85 93.6-2.5 92.9-2.2Q92.65-2.1 92.6-2.3L92.6-2.3Q92.5-2.5 92.7-2.6L92.7-2.6 93.4-2.9 94.2-3.25 94.9-3.5Q94.7-3.75 94.5-3.8L94.5-3.8Q94.5-3.8 94.45-3.8L94.45-3.8Q94.45-3.8 94.45-3.8L94.45-3.8 93.75-3.6 92.85-3.25 92.1-2.95Q91.9-2.9 91.8-3.1L91.8-3.1Q91.7-3.3 91.95-3.4L91.95-3.4 92.7-3.65 93.6-4 94.35-4.25Q94.25-4.4 94.15-4.53 94.05-4.65 93.95-4.75L93.95-4.75 93.15-4.45 92.45-4.1 91.6-3.75Q91.4-3.7 91.3-3.9L91.3-3.9Q91.25-4.1 91.45-4.2L91.45-4.2 92.25-4.5 93-4.85 93.7-5.15Q93.6-5.3 93.5-5.4L93.5-5.4Q93.5-5.4 93.5-5.4L93.5-5.4 92.65-5.1 91.8-4.85 91.1-4.45Q90.9-4.35 90.8-4.55L90.8-4.55Q90.7-4.75 90.9-4.85L90.9-4.85 91.6-5.25Q91.6-5.25 91.65-5.25L91.65-5.25Q91.65-5.25 91.65-5.25L91.65-5.25 92.5-5.55 93.2-5.8Q93.05-6.05 92.9-6.25L92.9-6.25 92.05-5.9Q92.05-5.9 92.05-5.85L92.05-5.85Q92.05-5.85 92.05-5.85L92.05-5.85 91.2-5.65 90.45-5.3Q90.25-5.2 90.15-5.4L90.15-5.4Q90.05-5.65 90.3-5.7L90.3-5.7 91-6.05Q91-6.05 91.05-6.05L91.05-6.05Q91.05-6.05 91.05-6.05L91.05-6.05 91.9-6.3 92.6-6.6Q92.45-6.8 92.3-7L92.3-7Q92.3-7 92.3-7 92.3-7 92.3-7L92.3-7Q92.3-7 92.3-7 92.3-7 92.3-7L92.3-7Q92.3-7 92.3-7.03 92.3-7.05 92.25-7.05L92.25-7.05 91.55-6.8 90.75-6.55 90-6.25Q89.75-6.2 89.7-6.4L89.7-6.4Q89.6-6.6 89.8-6.7L89.8-6.7 90.6-6.95 91.45-7.25 91.95-7.45Q91.8-7.65 91.6-7.9L91.6-7.9 90.9-7.55 90.1-7.3ZM87.45-0.3L87.45-0.3Q87.5-0.3 87.55-0.3L87.55-0.3Q87.85-0.35 88.05-0.55L88.05-0.55Q88.3-0.8 88.32-1.15 88.35-1.5 88.35-1.85L88.35-1.85Q88.35-2.05 88.35-2.25L88.35-2.25Q88.35-2.45 88.35-2.68 88.35-2.9 88.35-3.1L88.35-3.1Q88.35-3.1 88.35-3.1L88.35-3.1 88.35-3.1Q88.3-5 88.25-6.93 88.2-8.85 88-10.7L88-10.7Q88-10.75 88-10.75L88-10.75Q88-11.2 87.97-11.7 87.95-12.2 87.9-12.7L87.9-12.7Q87.9-12.8 87.9-12.9L87.9-12.9Q87.8-13.05 87.85-13.05L87.85-13.05Q87.85-13.1 87.85-13.1L87.85-13.1Q87.75-13.4 87.75-13.65 87.75-13.9 88.15-14.05L88.15-14.05Q88.55-14.25 88.7-14.03 88.85-13.8 88.95-13.5L88.95-13.5Q89-13.45 89-13.4L89-13.4Q89.05-13.4 89.05-13.35L89.05-13.35Q89.1-13.25 89.15-13.25L89.15-13.25Q89.3-13.45 89.5-13.35L89.5-13.35Q89.65-13.2 89.45-12.85L89.45-12.85Q89.45-12.85 89.45-12.85L89.45-12.85Q89.45-12.85 89.4-12.8L89.4-12.8Q89.45-12.7 89.55-12.55L89.55-12.55 89.9-12.6Q90.15-12.65 90.15-12.4L90.15-12.4Q90.2-12.2 89.9-12.15L89.9-12.15Q89.95-12.05 90.05-11.95 90.15-11.85 90.4-11.8L90.4-11.8Q90.6-11.85 90.65-11.65L90.65-11.65Q90.75-11.45 90.5-11.35L90.5-11.35Q90.55-11.25 90.65-11.15 90.75-11.05 90.9-11L90.9-11Q91.15-11.05 91.2-10.85L91.2-10.85Q91.25-10.65 91.1-10.6L91.1-10.6Q91.3-10.3 91.45-10.2L91.45-10.2Q91.65-10.25 91.75-10.05L91.75-10.05Q91.8-9.9 91.65-9.8L91.65-9.8Q91.85-9.55 92-9.4L92-9.4Q92.2-9.45 92.25-9.25L92.25-9.25Q92.3-9.15 92.25-9.05L92.25-9.05Q92.4-8.85 92.55-8.6L92.55-8.6Q92.75-8.65 92.8-8.45L92.8-8.45Q92.8-8.4 92.8-8.35L92.8-8.35Q93-8.05 93.2-7.8L93.2-7.8Q93.3-7.75 93.3-7.65L93.3-7.65Q93.3-7.65 93.3-7.65L93.3-7.65Q94.2-6.5 95.05-5.35 95.9-4.2 96.8-3.05L96.8-3.05Q97.05-2.65 97.32-2.23 97.6-1.8 97.95-1.45L97.95-1.45Q98.1-1.25 98.3-1.03 98.5-0.8 98.75-0.65L98.75-0.65Q99.1-0.45 99.52-0.43 99.95-0.4 100.4-0.4L100.4-0.4Q100.65-0.4 100.75-0.4L100.75-0.4Q101.1-0.4 101.45-0.38 101.8-0.35 102.15-0.35L102.15-0.35Q102.95-0.35 103.75-0.35 104.55-0.35 105.4-0.35L105.4-0.35Q105.4-0.35 105.4-0.35 105.4-0.35 105.4-0.35L105.4-0.35Q105.4-0.35 105.4-0.35L105.4-0.35Q105.85-0.4 106.3-0.4 106.75-0.4 107.2-0.45L107.2-0.45Q107.35-0.5 107.55-0.58 107.75-0.65 107.85-0.75L107.85-0.75Q108.1-1.05 108.12-1.45 108.15-1.85 108.15-2.2L108.15-2.2Q108.1-2.45 108.1-2.55L108.1-2.55Q108.1-3.75 108.05-4.98 108-6.2 107.95-7.4L107.95-7.4Q107.95-8.2 107.95-9.03 107.95-9.85 107.95-10.65L107.95-10.65Q107.95-11 107.95-11.2L107.95-11.2Q108-12.45 108-13.65 108-14.85 108.1-16.05L108.1-16.05Q108.2-17.3 108.3-18.5 108.4-19.7 108.45-20.95L108.45-20.95Q108.5-21.95 108.5-22.93 108.5-23.9 108.5-24.9L108.5-24.9Q108.5-25.65 108.5-26.38 108.5-27.1 108.5-27.85L108.5-27.85Q108.5-27.85 108.5-27.85 108.5-27.85 108.5-27.85L108.5-27.85Q108.5-27.85 108.5-27.85L108.5-27.85Q108.55-29.1 108.57-30.33 108.6-31.55 108.7-32.8L108.7-32.8Q108.7-32.8 108.7-32.8 108.7-32.8 108.7-32.8L108.7-32.8Q108.7-32.8 108.7-32.8L108.7-32.8Q108.7-32.9 108.7-33.1L108.7-33.1Q108.75-33.45 108.75-33.83 108.75-34.2 108.5-34.45L108.5-34.45Q108.2-34.75 107.65-34.77 107.1-34.8 106.6-34.75L106.6-34.75Q106.2-34.75 106.05-34.75L106.05-34.75Q104.55-34.75 103.07-34.75 101.6-34.75 100.15-34.65L100.15-34.65Q99.9-34.65 99.65-34.63 99.4-34.6 99.15-34.6L99.15-34.6Q99.05-34.6 98.8-34.6L98.8-34.6Q98.45-34.6 98.1-34.55 97.75-34.5 97.5-34.25L97.5-34.25Q97.15-33.95 97.15-33.38 97.15-32.8 97.2-32.25L97.2-32.25Q97.25-31.9 97.25-31.7L97.25-31.7Q97.35-29.75 97.42-27.73 97.5-25.7 97.35-23.75L97.35-23.75Q97.35-23.05 97.3-22.33 97.25-21.6 97.2-20.9L97.2-20.9Q97.2-20.8 97.25-20.5L97.25-20.5Q97.3-20.2 97.27-19.95 97.25-19.7 96.85-19.6L96.85-19.6Q96.45-19.5 96.3-19.73 96.15-19.95 96.05-20.2L96.05-20.2Q95.95-20.5 95.85-20.6L95.85-20.6Q95.45-21.2 95.07-21.83 94.7-22.45 94.4-23.05L94.4-23.05Q94.2-23.4 94.05-23.7 93.9-24 93.75-24.3L93.75-24.3Q93.55-24.3 93.5-24.45L93.5-24.45Q93.45-24.6 93.55-24.7L93.55-24.7Q93.25-25.3 92.95-25.93 92.65-26.55 92.35-27.1L92.35-27.1Q91.8-28.15 91.15-29.13 90.5-30.1 89.9-31.05L89.9-31.05Q89.5-31.65 89.12-32.3 88.75-32.95 88.25-33.5L88.25-33.5Q88.1-33.7 87.9-33.93 87.7-34.15 87.45-34.25L87.45-34.25Q87.05-34.5 86.62-34.52 86.2-34.55 85.75-34.55L85.75-34.55Q85.45-34.55 85.35-34.55L85.35-34.55Q83.9-34.6 82.42-34.65 80.95-34.7 79.5-34.7L79.5-34.7Q79.5-34.7 79.5-34.7 79.5-34.7 79.5-34.7L79.5-34.7 79.5-34.7Q79.4-34.7 79.15-34.75L79.15-34.75Q78.95-34.75 78.72-34.75 78.5-34.75 78.25-34.7L78.25-34.7 77.7-34.4Q77.45-34.15 77.4-33.77 77.35-33.4 77.4-33.05L77.4-33.05Q77.4-32.85 77.4-32.75L77.4-32.75Q77.4-32.05 77.37-31.33 77.35-30.6 77.35-29.85L77.35-29.85Q77.35-29.8 77.35-29.75L77.35-29.75Q77.35-29.3 77.35-28.9L77.35-28.9Q77.35-28.9 77.35-28.9L77.35-28.9Q77.35-28.8 77.3-28.7L77.3-28.7Q77.3-28.35 77.3-28L77.3-28Q77.3-27.95 77.35-27.9L77.35-27.9Q77.4-27.8 77.3-27.7L77.3-27.7Q77.3-27.35 77.3-27L77.3-27Q77.3-27 77.3-26.95L77.3-26.95Q77.4-26.8 77.25-26.7L77.25-26.7Q77.25-26.55 77.25-26.55L77.25-26.55Q77.25-26.3 77.25-26.05L77.25-26.05Q77.3-26.05 77.3-26L77.3-26Q77.4-25.8 77.25-25.7L77.25-25.7Q77.25-25.4 77.25-25.1L77.25-25.1Q77.3-25.05 77.35-25L77.35-25Q77.4-24.8 77.25-24.75L77.25-24.75Q77.25-24.45 77.3-24.1L77.3-24.1Q77.3-24.05 77.3-24L77.3-24Q77.4-23.9 77.3-23.8L77.3-23.8Q77.3-23.45 77.35-23.05L77.35-23.05Q77.35-23.05 77.35-23L77.35-23Q77.35-22.95 77.35-22.85L77.35-22.85Q77.35-22.7 77.35-22.35L77.35-22.35Q77.4-21.7 77.42-21.03 77.45-20.35 77.45-19.7L77.45-19.7Q77.5-19.15 77.47-18.65 77.45-18.15 77.45-17.6L77.45-17.6Q77.45-17.15 77.45-16.7 77.45-16.25 77.45-15.85L77.45-15.85Q77.45-13.9 77.47-12 77.5-10.1 77.55-8.2L77.55-8.2Q77.55-7.2 77.55-6.23 77.55-5.25 77.5-4.25L77.5-4.25Q77.5-3.8 77.5-3.33 77.5-2.85 77.5-2.35L77.5-2.35Q77.5-2.3 77.45-2.1L77.45-2.1Q77.4-1.7 77.45-1.55L77.45-1.55Q77.5-1.35 77.6-1.18 77.7-1 77.75-0.85L77.75-0.85 78.65-0.35Q79.15-0.35 79.62-0.38 80.1-0.4 80.6-0.4L80.6-0.4Q81.85-0.45 83.15-0.48 84.45-0.5 85.7-0.4L85.7-0.4Q85.85-0.35 86.2-0.35L86.2-0.35Q86.45-0.3 86.55-0.3L86.55-0.3Q86.65-0.3 86.7-0.25L86.7-0.25Q87.15-0.25 87.45-0.3ZM95.85-33.75L95.85-33.75 95.15-33.4 94.5-33.05 95.1-33.25 96-33.6Q96-33.75 95.85-33.75ZM96.15-27.3L96.15-27.3 95.3-26.9Q95.3-26.9 95.3-26.9L95.3-26.9Q95.3-26.9 95.3-26.9L95.3-26.9 94.4-26.65 94-26.5Q94.1-26.35 94.3-26.3L94.3-26.3 95.1-26.55 95.9-26.85Q95.9-26.85 95.95-26.9L95.95-26.9Q95.95-26.9 95.95-26.9L95.95-26.9 96.25-26.95Q96.25-27.2 96.15-27.3ZM95.25-26.1L94.35-25.85Q94.4-25.7 94.5-25.53 94.6-25.35 94.7-25.15L94.7-25.15 95.25-25.4 96-25.75 96.25-25.9Q96.25-26.05 96.22-26.2 96.2-26.35 96.05-26.45L96.05-26.45 95.25-26.1Q95.25-26.1 95.25-26.1L95.25-26.1Q95.25-26.1 95.25-26.1L95.25-26.1ZM95.45-24.95L94.9-24.75Q94.95-24.6 95-24.5L95-24.5 95.55-24.8Q95.55-24.8 95.55-24.8L95.55-24.8Q95.6-24.8 95.6-24.8L95.6-24.8 96.25-25Q96.25-25.25 96.2-25.35L96.2-25.35 95.45-25Q95.45-25 95.45-24.95L95.45-24.95Q95.45-24.95 95.45-24.95L95.45-24.95ZM95.75-24.4L95.2-24.1Q95.35-23.85 95.45-23.6L95.45-23.6Q95.45-23.6 95.45-23.6 95.45-23.6 95.45-23.6L95.45-23.6 95.75-23.8Q95.75-23.8 95.8-23.8L95.8-23.8Q95.8-23.8 95.8-23.8L95.8-23.8 96.2-24Q96.2-24.25 96.2-24.55L96.2-24.55 95.75-24.4ZM96-23.4L96-23.4 95.65-23.25Q95.8-23 96-23L96-23Q96-23 96.05-23.05L96.05-23.05Q96.1-23.05 96.15-23.05L96.15-23.05Q96.15-23.35 96-23.4ZM89.2-11L89.2-11Q89.2-10.9 89.2-10.8L89.2-10.8Q89.25-10.6 89.25-10.4L89.25-10.4 89.65-10.5Q89.55-10.6 89.45-10.75 89.35-10.9 89.2-11ZM89.9-10.1L89.3-9.95Q89.3-9.65 89.5-9.55L89.5-9.55Q89.5-9.55 89.5-9.55L89.5-9.55Q89.55-9.55 89.55-9.55L89.55-9.55 90.2-9.75Q90-10 89.95-10.1L89.95-10.1Q89.95-10.1 89.9-10.1L89.9-10.1Q89.9-10.1 89.9-10.1L89.9-10.1ZM89.7-9.15L89.35-9Q89.35-8.7 89.4-8.45L89.4-8.45 89.75-8.65Q89.75-8.65 89.8-8.65L89.8-8.65Q89.8-8.65 89.8-8.65L89.8-8.65 90.5-8.9 90.8-9Q90.7-9.1 90.6-9.2 90.5-9.3 90.3-9.35L90.3-9.35 89.7-9.15ZM89.95-8.25L89.4-7.95Q89.45-7.75 89.45-7.5L89.45-7.5 89.95-7.7 90.75-8 91.35-8.25Q91.25-8.35 91.05-8.6L91.05-8.6 90.65-8.45 89.95-8.25ZM97.65 0.05L97.65 0.05 97.4 0.15 96.55 0.55 97.1 0.4 97.8 0.15Q97.75 0.1 97.65 0.05Z" opacity="1" transform="matrix(1,0,0,1,0,0)" fill="#fe5e30" class="wordmark-text-0" data-fill-palette-color="primary" id="text-0"></path></svg></g></svg></g></svg></g></svg></g></svg></g></svg></g></svg></g><g><path d="M0 123.6c0-68.262 55.338-123.6 123.6-123.6 50.03 0 93.118 29.725 112.566 72.478l-4.112 0c-19.187-40.634-60.537-68.749-108.454-68.748-66.203 0-119.87 53.668-119.87 119.87 0 66.203 53.668 119.87 119.87 119.87 47.917 0 89.267-28.115 108.454-68.748l4.112 0c-19.447 42.753-62.535 72.478-112.566 72.478-68.262 0-123.6-55.338-123.6-123.6z" fill="#fe5e30" stroke="transparent" data-fill-palette-color="tertiary"></path></g></svg></g><defs></defs></svg><rect width="395.52" height="247.2" fill="none" stroke="none" visibility="hidden"></rect></g></svg></g></svg>